<svg width="50" height="42" viewBox="0 0 50 42" fill="none" xmlns="http://www.w3.org/2000/svg">
<path d="M6.57959 31.1099V32.0498H3.9209V39H2.83594V32.0498H0.177246V31.1099H6.57959ZM7.43359 31.083H8.40039V34.0264C8.62956 33.7363 8.83545 33.5322 9.01807 33.4141C9.32959 33.21 9.7181 33.1079 10.1836 33.1079C11.0179 33.1079 11.5837 33.3997 11.8809 33.9834C12.042 34.3021 12.1226 34.7443 12.1226 35.3101V39H11.1289V35.3745C11.1289 34.952 11.0752 34.6423 10.9678 34.4453C10.7923 34.1302 10.4629 33.9727 9.97949 33.9727C9.57845 33.9727 9.21501 34.1105 8.88916 34.3862C8.56331 34.6619 8.40039 35.1829 8.40039 35.9492V39H7.43359V31.083ZM15.9521 33.1187C16.3604 33.1187 16.756 33.2153 17.1392 33.4087C17.5223 33.5985 17.8141 33.8455 18.0146 34.1499C18.208 34.4399 18.3369 34.7783 18.4014 35.165C18.4587 35.43 18.4873 35.8525 18.4873 36.4326H14.271C14.2889 37.0163 14.4268 37.4854 14.6846 37.8398C14.9424 38.1908 15.3416 38.3662 15.8823 38.3662C16.3872 38.3662 16.79 38.1997 17.0908 37.8667C17.2627 37.6733 17.3844 37.4495 17.4561 37.1953H18.4067C18.3817 37.4066 18.2975 37.6429 18.1543 37.9043C18.0146 38.1621 17.8571 38.3734 17.6816 38.5381C17.388 38.8245 17.0246 39.0179 16.5913 39.1182C16.3586 39.1755 16.0954 39.2041 15.8018 39.2041C15.0856 39.2041 14.4787 38.9445 13.981 38.4253C13.4832 37.9025 13.2344 37.172 13.2344 36.2339C13.2344 35.3101 13.485 34.5599 13.9863 33.9834C14.4876 33.4069 15.1429 33.1187 15.9521 33.1187ZM17.4937 35.6646C17.4543 35.2456 17.363 34.9108 17.2197 34.6602C16.9548 34.1947 16.5125 33.9619 15.8931 33.9619C15.4491 33.9619 15.0767 34.123 14.7759 34.4453C14.4751 34.764 14.3158 35.1704 14.2979 35.6646H17.4937ZM16.5054 30.9326L17.6011 32.4849H16.7202L15.9951 31.4536L15.27 32.4849H14.3945L15.4849 30.9326H16.5054ZM19.6797 33.2476H20.6357V34.064C20.8649 33.7811 21.0726 33.5752 21.2588 33.4463C21.5775 33.2279 21.9391 33.1187 22.3438 33.1187C22.8021 33.1187 23.1709 33.2314 23.4502 33.457C23.6077 33.5859 23.751 33.7757 23.8799 34.0264C24.0947 33.7184 24.3472 33.491 24.6372 33.3442C24.9272 33.1938 25.2531 33.1187 25.6147 33.1187C26.3882 33.1187 26.9146 33.3979 27.1938 33.9565C27.3442 34.2573 27.4194 34.6619 27.4194 35.1704V39H26.415V35.0039C26.415 34.6208 26.3184 34.3576 26.125 34.2144C25.9352 34.0711 25.7025 33.9995 25.4268 33.9995C25.0472 33.9995 24.7196 34.1266 24.4438 34.3809C24.1717 34.6351 24.0356 35.0594 24.0356 35.6538V39H23.0527V35.2456C23.0527 34.8553 23.0062 34.5706 22.9131 34.3916C22.7663 34.123 22.4924 33.9888 22.0913 33.9888C21.7261 33.9888 21.3931 34.1302 21.0923 34.4131C20.7951 34.696 20.6465 35.208 20.6465 35.9492V39H19.6797V33.2476ZM32.6455 37.4692C32.6455 37.7485 32.7476 37.9688 32.9517 38.1299C33.1558 38.291 33.3975 38.3716 33.6768 38.3716C34.0169 38.3716 34.3464 38.2928 34.665 38.1353C35.2021 37.8739 35.4707 37.446 35.4707 36.8516V36.0728C35.3525 36.1479 35.2004 36.2106 35.0142 36.2607C34.828 36.3109 34.6453 36.3467 34.4663 36.3682L33.8809 36.4434C33.5299 36.4899 33.2668 36.5633 33.0913 36.6636C32.7941 36.8319 32.6455 37.1004 32.6455 37.4692ZM34.9873 35.5142C35.2093 35.4855 35.3579 35.3924 35.4331 35.2349C35.4761 35.1489 35.4976 35.0254 35.4976 34.8643C35.4976 34.5348 35.3794 34.2967 35.1431 34.1499C34.9103 33.9995 34.5755 33.9243 34.1387 33.9243C33.6338 33.9243 33.2757 34.0604 33.0645 34.3325C32.9463 34.4829 32.8693 34.7067 32.8335 35.0039H31.9312C31.9491 34.2949 32.1782 33.8026 32.6187 33.5269C33.0627 33.2476 33.5765 33.1079 34.1602 33.1079C34.8369 33.1079 35.3866 33.2368 35.8091 33.4946C36.228 33.7524 36.4375 34.1535 36.4375 34.6978V38.0117C36.4375 38.112 36.4572 38.1925 36.4966 38.2534C36.5396 38.3143 36.6273 38.3447 36.7598 38.3447C36.8027 38.3447 36.8511 38.3429 36.9048 38.3394C36.9585 38.3322 37.0158 38.3232 37.0767 38.3125V39.0269C36.9263 39.0698 36.8117 39.0967 36.7329 39.1074C36.6541 39.1182 36.5467 39.1235 36.4106 39.1235C36.0776 39.1235 35.8359 39.0054 35.6855 38.769C35.6068 38.6437 35.5513 38.4665 35.519 38.2373C35.3221 38.4951 35.0392 38.7189 34.6704 38.9087C34.3016 39.0985 33.8952 39.1934 33.4512 39.1934C32.9176 39.1934 32.4808 39.0322 32.1406 38.71C31.804 38.3841 31.6357 37.9777 31.6357 37.4907C31.6357 36.9572 31.8022 36.5436 32.1353 36.25C32.4683 35.9564 32.9051 35.7756 33.4458 35.7075L34.9873 35.5142ZM34.4717 31.5342C34.418 31.4984 34.3625 31.4733 34.3052 31.459C34.2515 31.4411 34.1834 31.4321 34.1011 31.4321C34.0151 31.4321 33.8988 31.4429 33.752 31.4644L33.7305 31.04C33.8092 31.0293 33.8862 31.0203 33.9614 31.0132C34.0402 31.006 34.1154 31.0024 34.187 31.0024C34.3696 31.0024 34.5379 31.0329 34.6919 31.0938C34.8459 31.151 34.9819 31.2638 35.1001 31.4321C35.1323 31.4787 35.1592 31.5396 35.1807 31.6147C35.2057 31.6899 35.2183 31.7705 35.2183 31.8564C35.2183 31.9281 35.2075 32.0015 35.186 32.0767C35.1646 32.1519 35.127 32.2235 35.0732 32.2915C35.0195 32.356 34.9461 32.4132 34.853 32.4634C34.7635 32.5135 34.6507 32.5529 34.5146 32.5815L34.4932 32.8179H34.0205V32.4097C34.2354 32.3882 34.4001 32.3255 34.5146 32.2217C34.6328 32.1143 34.6919 31.9997 34.6919 31.8779C34.6919 31.8135 34.674 31.7526 34.6382 31.6953C34.6024 31.6344 34.5469 31.5807 34.4717 31.5342ZM38.0273 33.2476H38.9458V34.064C39.2179 33.7274 39.5062 33.4857 39.8105 33.3389C40.1149 33.1921 40.4533 33.1187 40.8257 33.1187C41.6421 33.1187 42.1935 33.4033 42.48 33.9727C42.6375 34.2842 42.7163 34.73 42.7163 35.3101V39H41.7334V35.3745C41.7334 35.0236 41.6815 34.7407 41.5776 34.5259C41.4058 34.1678 41.0942 33.9888 40.6431 33.9888C40.4139 33.9888 40.2259 34.012 40.0791 34.0586C39.8141 34.1374 39.5814 34.2949 39.3809 34.5312C39.2197 34.721 39.1141 34.918 39.064 35.1221C39.0174 35.3226 38.9941 35.6108 38.9941 35.9868V39H38.0273V33.2476ZM44.1504 31.083H45.1172V34.0264C45.3464 33.7363 45.5522 33.5322 45.7349 33.4141C46.0464 33.21 46.4349 33.1079 46.9004 33.1079C47.7347 33.1079 48.3005 33.3997 48.5977 33.9834C48.7588 34.3021 48.8394 34.7443 48.8394 35.3101V39H47.8457V35.3745C47.8457 34.952 47.792 34.6423 47.6846 34.4453C47.5091 34.1302 47.1797 33.9727 46.6963 33.9727C46.2952 33.9727 45.9318 34.1105 45.606 34.3862C45.2801 34.6619 45.1172 35.1829 45.1172 35.9492V39H44.1504V31.083Z" fill="black"/>
<path d="M32.6799 0H29.32C28.3257 0 27.5943 0.411423 27.2629 1.14284C27.08 1.47427 27 1.86283 27 2.31997V5.67993C27 7.13134 27.8686 7.9999 29.32 7.9999H32.6799C33.1371 7.9999 33.5256 7.9199 33.8571 7.73704C34.5885 7.40562 34.9999 6.6742 34.9999 5.67993V2.31997C34.9999 0.86856 34.1313 0 32.6799 0ZM33.7542 4.49137C33.6399 4.60565 33.4685 4.68565 33.2856 4.69708H31.6742V5.27993L31.6857 6.28563C31.6742 6.47992 31.6057 6.63991 31.4685 6.77705C31.3542 6.89134 31.1828 6.97134 30.9999 6.97134C30.6228 6.97134 30.3142 6.66277 30.3142 6.28563V4.68565L28.7143 4.69708C28.3371 4.69708 28.0286 4.37709 28.0286 3.99995C28.0286 3.62281 28.3371 3.31424 28.7143 3.31424L29.72 3.32567H30.3142V1.72569C30.3142 1.34855 30.6228 1.02856 30.9999 1.02856C31.3771 1.02856 31.6857 1.34855 31.6857 1.72569L31.6742 2.53711V3.31424H33.2856C33.6628 3.31424 33.9713 3.62281 33.9713 3.99995C33.9599 4.19423 33.8799 4.35423 33.7542 4.49137Z" fill="#002144"/>
<path d="M19.0012 10.7211C20.5034 10.7211 21.7212 9.50334 21.7212 8.00114C21.7212 6.49896 20.5034 5.28118 19.0012 5.28118C17.499 5.28118 16.2812 6.49896 16.2812 8.00114C16.2812 9.50334 17.499 10.7211 19.0012 10.7211Z" fill="#002144"/>
<path d="M32.6797 7.9999H32.1426V13.2684L31.994 13.1427C31.1026 12.377 29.6626 12.377 28.7712 13.1427L24.017 17.2226C23.1256 17.9883 21.6856 17.9883 20.7942 17.2226L20.4056 16.9026C19.5942 16.1941 18.3028 16.1255 17.3885 16.7426L13.1143 19.6112C12.8628 18.9712 12.7143 18.2283 12.7143 17.3598V7.78276C12.7143 4.55994 14.4171 2.85711 17.6399 2.85711H26.9998V2.31997C26.9998 1.86284 27.0798 1.47427 27.2626 1.14285H17.6399C13.48 1.14285 11 3.62281 11 7.78276V17.3598C11 18.6055 11.2171 19.6912 11.64 20.6055C12.6228 22.7769 14.7257 23.9997 17.6399 23.9997H27.2169C31.3769 23.9997 33.8568 21.5197 33.8568 17.3598V7.73705C33.5254 7.9199 33.1369 7.9999 32.6797 7.9999Z" fill="#002144"/>
</svg>
