<svg width="38" height="38" viewBox="0 0 38 38" fill="none" xmlns="http://www.w3.org/2000/svg">
<g filter="url(#filter0_d_567_2562)">
<rect x="4" width="30" height="30" rx="5" fill="#F0F4F5"/>
<path d="M23.7461 22.875C23.0598 22.875 22.0958 22.6268 20.6523 21.8203C18.897 20.8359 17.5392 19.9271 15.7934 18.1859C14.1101 16.5036 13.2909 15.4145 12.1445 13.3283C10.8493 10.9729 11.0701 9.73816 11.3169 9.21047C11.6108 8.57977 12.0447 8.20254 12.6054 7.82812C12.9239 7.61945 13.2609 7.44057 13.6123 7.29375C13.6474 7.27863 13.6801 7.26422 13.7093 7.25121C13.8833 7.17281 14.147 7.05434 14.481 7.1809C14.7039 7.26457 14.9029 7.43578 15.2143 7.7434C15.8531 8.3734 16.7261 9.77648 17.0481 10.4655C17.2643 10.93 17.4074 11.2365 17.4077 11.5804C17.4077 11.9829 17.2052 12.2933 16.9595 12.6284C16.9134 12.6913 16.8677 12.7514 16.8234 12.8098C16.5559 13.1613 16.4972 13.2629 16.5359 13.4443C16.6143 13.8089 17.1989 14.8942 18.1597 15.8529C19.1206 16.8116 20.1745 17.3593 20.5405 17.4374C20.7297 17.4778 20.8334 17.4166 21.1962 17.1396C21.2482 17.0999 21.3016 17.0587 21.3575 17.0176C21.7323 16.7388 22.0283 16.5416 22.4214 16.5416H22.4235C22.7656 16.5416 23.0584 16.69 23.5436 16.9346C24.1764 17.2539 25.6216 18.1155 26.2555 18.755C26.5638 19.0658 26.7357 19.2641 26.8198 19.4866C26.9463 19.8217 26.8272 20.0843 26.7495 20.2601C26.7364 20.2893 26.722 20.3212 26.7069 20.3568C26.5589 20.7075 26.379 21.0438 26.1694 21.3615C25.7957 21.9205 25.417 22.3533 24.7849 22.6475C24.4603 22.8011 24.1051 22.8788 23.7461 22.875Z" fill="#002144"/>
</g>
<defs>
<filter id="filter0_d_567_2562" x="0" y="0" width="38" height="38" filterUnits="userSpaceOnUse" color-interpolation-filters="sRGB">
<feFlood flood-opacity="0" result="BackgroundImageFix"/>
<feColorMatrix in="SourceAlpha" type="matrix" values="0 0 0 0 0 0 0 0 0 0 0 0 0 0 0 0 0 0 127 0" result="hardAlpha"/>
<feOffset dy="4"/>
<feGaussianBlur stdDeviation="2"/>
<feComposite in2="hardAlpha" operator="out"/>
<feColorMatrix type="matrix" values="0 0 0 0 0 0 0 0 0 0 0 0 0 0 0 0 0 0 0.25 0"/>
<feBlend mode="normal" in2="BackgroundImageFix" result="effect1_dropShadow_567_2562"/>
<feBlend mode="normal" in="SourceGraphic" in2="effect1_dropShadow_567_2562" result="shape"/>
</filter>
</defs>
</svg>
