<svg width="16" height="16" viewBox="0 0 16 16" fill="none" xmlns="http://www.w3.org/2000/svg">
<path opacity="0.4" d="M10.5192 0H4.50822C1.50274 0 0 1.50274 0 4.50822V14.276C0 14.6893 0.338117 15.0274 0.75137 15.0274H10.5192C13.5247 15.0274 15.0274 13.5247 15.0274 10.5192V4.50822C15.0274 1.50274 13.5247 0 10.5192 0Z" fill="#292D32"/>
<path d="M10.9336 4.10262C9.98686 3.15589 9.07019 3.13335 8.10092 4.10262L7.50734 4.6962C7.45474 4.7488 7.43971 4.82393 7.45474 4.89156C7.82291 6.18392 8.85229 7.2133 10.1446 7.58147C10.1597 7.58898 10.1822 7.58898 10.2048 7.58898C10.2574 7.58898 10.3099 7.56644 10.3475 7.52887L10.9336 6.9428C11.4145 6.46193 11.6474 6.00358 11.6474 5.53773C11.6474 5.04934 11.4145 4.58349 10.9336 4.10262Z" fill="#292D32"/>
<path d="M9.27189 8.0172C9.12913 7.94958 8.99388 7.88196 8.86615 7.79931C8.76095 7.7392 8.65576 7.67157 8.55808 7.59644C8.47543 7.54384 8.37776 7.4687 8.28008 7.38605C8.26505 7.37854 8.235 7.356 8.19743 7.31091C8.03964 7.17567 7.85931 6.99534 7.69401 6.8075C7.67898 6.79998 7.65644 6.76241 7.62639 6.71733C7.57379 6.65722 7.49865 6.55954 7.42352 6.45435C7.36341 6.37922 7.29578 6.27402 7.23567 6.16883C7.16054 6.0411 7.0854 5.90587 7.02529 5.77062C6.95767 5.62035 6.90507 5.4851 6.85247 5.34985L4.01984 8.1825C3.832 8.37035 3.65918 8.71598 3.62161 8.97144L3.40371 10.5343C3.35111 10.8649 3.44878 11.173 3.65165 11.3833C3.82447 11.5562 4.06492 11.6463 4.3279 11.6463C4.38801 11.6463 4.44059 11.6388 4.5007 11.6313L6.06354 11.4134C6.319 11.3758 6.66463 11.203 6.85247 11.0152L9.68514 8.1825C9.54989 8.12991 9.41465 8.07731 9.27189 8.0172Z" fill="#292D32"/>
</svg>
