<svg width="399" height="231" viewBox="0 0 399 231" fill="none" xmlns="http://www.w3.org/2000/svg">
<g filter="url(#filter0_d_684_3016)">
<path d="M25.5684 7.08984V11.6777H17.8164V33H12.3672V11.6777H4.58008V7.08984H25.5684ZM44.3242 16.2656C45.9414 18.293 46.75 20.6895 46.75 23.4551C46.75 26.2676 45.9414 28.6758 44.3242 30.6797C42.707 32.6719 40.252 33.668 36.959 33.668C33.666 33.668 31.2109 32.6719 29.5938 30.6797C27.9766 28.6758 27.168 26.2676 27.168 23.4551C27.168 20.6895 27.9766 18.293 29.5938 16.2656C31.2109 14.2383 33.666 13.2246 36.959 13.2246C40.252 13.2246 42.707 14.2383 44.3242 16.2656ZM36.9414 17.4609C35.4766 17.4609 34.3457 17.9824 33.5488 19.0254C32.7637 20.0566 32.3711 21.5332 32.3711 23.4551C32.3711 25.377 32.7637 26.8594 33.5488 27.9023C34.3457 28.9453 35.4766 29.4668 36.9414 29.4668C38.4062 29.4668 39.5312 28.9453 40.3164 27.9023C41.1016 26.8594 41.4941 25.377 41.4941 23.4551C41.4941 21.5332 41.1016 20.0566 40.3164 19.0254C39.5312 17.9824 38.4062 17.4609 36.9414 17.4609ZM34.709 6H39.209L43.3223 11.2559H39.2441L36.959 8.30273L34.6562 11.2559H30.5781L34.709 6ZM55.5039 13.8398V33H50.4238V13.8398H55.5039ZM55.5039 6.93164V11.5547H50.4238V6.93164H55.5039ZM81.1504 19.1133C80.7285 18.1875 79.9023 17.7246 78.6719 17.7246C77.2422 17.7246 76.2812 18.1875 75.7891 19.1133C75.5195 19.6406 75.3848 20.4258 75.3848 21.4688V33H70.3047V13.875H75.1738V16.6699C75.7949 15.6738 76.3809 14.9648 76.9316 14.543C77.9043 13.793 79.1641 13.418 80.7109 13.418C82.1758 13.418 83.3594 13.7402 84.2617 14.3848C84.9883 14.9824 85.5391 15.75 85.9141 16.6875C86.5703 15.5625 87.3848 14.7363 88.3574 14.209C89.3887 13.6816 90.5371 13.418 91.8027 13.418C92.6465 13.418 93.4785 13.582 94.2988 13.9102C95.1191 14.2383 95.8633 14.8125 96.5312 15.6328C97.0703 16.3008 97.4336 17.1211 97.6211 18.0938C97.7383 18.7383 97.7969 19.6816 97.7969 20.9238L97.7617 33H92.6289V20.8008C92.6289 20.0742 92.5117 19.4766 92.2773 19.0078C91.832 18.1172 91.0117 17.6719 89.8164 17.6719C88.4336 17.6719 87.4785 18.2461 86.9512 19.3945C86.6816 20.0039 86.5469 20.7363 86.5469 21.5918V33H81.502V21.5918C81.502 20.4551 81.3848 19.6289 81.1504 19.1133ZM114.707 30.293C114.66 30.3516 114.543 30.5273 114.355 30.8203C114.168 31.1133 113.945 31.3711 113.688 31.5938C112.902 32.2969 112.141 32.7773 111.402 33.0352C110.676 33.293 109.82 33.4219 108.836 33.4219C106 33.4219 104.09 32.4023 103.105 30.3633C102.555 29.2383 102.279 27.5801 102.279 25.3887V13.8398H107.412V25.3887C107.412 26.4785 107.541 27.2988 107.799 27.8496C108.256 28.8223 109.152 29.3086 110.488 29.3086C112.199 29.3086 113.371 28.6172 114.004 27.2344C114.332 26.4844 114.496 25.4941 114.496 24.2637V13.8398H119.576V33H114.707V30.293ZM140.406 16.2656C142.023 18.293 142.832 20.6895 142.832 23.4551C142.832 26.2676 142.023 28.6758 140.406 30.6797C138.789 32.6719 136.334 33.668 133.041 33.668C129.748 33.668 127.293 32.6719 125.676 30.6797C124.059 28.6758 123.25 26.2676 123.25 23.4551C123.25 20.6895 124.059 18.293 125.676 16.2656C127.293 14.2383 129.748 13.2246 133.041 13.2246C136.334 13.2246 138.789 14.2383 140.406 16.2656ZM133.023 17.4609C131.559 17.4609 130.428 17.9824 129.631 19.0254C128.846 20.0566 128.453 21.5332 128.453 23.4551C128.453 25.377 128.846 26.8594 129.631 27.9023C130.428 28.9453 131.559 29.4668 133.023 29.4668C134.488 29.4668 135.613 28.9453 136.398 27.9023C137.184 26.8594 137.576 25.377 137.576 23.4551C137.576 21.5332 137.184 20.0566 136.398 19.0254C135.613 17.9824 134.488 17.4609 133.023 17.4609ZM131.09 6.26367H135.59L139.703 11.5195H135.625L133.34 8.56641L131.037 11.5195H126.959L131.09 6.26367ZM135.836 8.30273L139.211 3.04688H144.801L139.457 8.30273H135.836ZM155.453 17.5488C153.754 17.5488 152.588 18.2695 151.955 19.7109C151.627 20.4727 151.463 21.4453 151.463 22.6289V33H146.471V13.875H151.305V16.6699C151.949 15.6855 152.559 14.9766 153.133 14.543C154.164 13.7695 155.471 13.3828 157.053 13.3828C159.033 13.3828 160.65 13.9043 161.904 14.9473C163.17 15.9785 163.803 17.6953 163.803 20.0977V33H158.67V21.3457C158.67 20.3379 158.535 19.5645 158.266 19.0254C157.773 18.041 156.836 17.5488 155.453 17.5488ZM187.234 29.4316V33.1758L184.861 33.2637C182.494 33.3457 180.877 32.9355 180.01 32.0332C179.447 31.459 179.166 30.5742 179.166 29.3789V17.584H176.494V14.0156H179.166V8.67188H184.123V14.0156H187.234V17.584H184.123V27.709C184.123 28.4941 184.223 28.9863 184.422 29.1855C184.621 29.373 185.23 29.4668 186.25 29.4668C186.402 29.4668 186.561 29.4668 186.725 29.4668C186.9 29.4551 187.07 29.4434 187.234 29.4316ZM207.766 21.75V33H202.65V21.3457C202.65 20.3145 202.475 19.4824 202.123 18.8496C201.666 17.959 200.799 17.5137 199.521 17.5137C198.197 17.5137 197.189 17.959 196.498 18.8496C195.818 19.7285 195.479 20.9883 195.479 22.6289V33H190.486V7.17773H195.479V16.3359C196.205 15.2227 197.043 14.4492 197.992 14.0156C198.953 13.5703 199.961 13.3477 201.016 13.3477C202.199 13.3477 203.271 13.5527 204.232 13.9629C205.205 14.373 206.002 15 206.623 15.8438C207.15 16.5586 207.473 17.2969 207.59 18.0586C207.707 18.8086 207.766 20.0391 207.766 21.75ZM224.746 30.293C224.699 30.3516 224.582 30.5273 224.395 30.8203C224.207 31.1133 223.984 31.3711 223.727 31.5938C222.941 32.2969 222.18 32.7773 221.441 33.0352C220.715 33.293 219.859 33.4219 218.875 33.4219C216.039 33.4219 214.129 32.4023 213.145 30.3633C212.594 29.2383 212.318 27.5801 212.318 25.3887V13.8398H217.451V25.3887C217.451 26.4785 217.58 27.2988 217.838 27.8496C218.295 28.8223 219.191 29.3086 220.527 29.3086C222.238 29.3086 223.41 28.6172 224.043 27.2344C224.371 26.4844 224.535 25.4941 224.535 24.2637V13.8398H229.615V33H224.746V30.293ZM250.867 27.375C250.738 28.5117 250.146 29.666 249.092 30.8379C247.451 32.7012 245.154 33.6328 242.201 33.6328C239.764 33.6328 237.613 32.8477 235.75 31.2773C233.887 29.707 232.955 27.1523 232.955 23.6133C232.955 20.2969 233.793 17.7539 235.469 15.9844C237.156 14.2148 239.342 13.3301 242.025 13.3301C243.619 13.3301 245.055 13.6289 246.332 14.2266C247.609 14.8242 248.664 15.7676 249.496 17.0566C250.246 18.1934 250.732 19.5117 250.955 21.0117C251.084 21.8906 251.137 23.1562 251.113 24.8086H238C238.07 26.7305 238.674 28.0781 239.811 28.8516C240.502 29.332 241.334 29.5723 242.307 29.5723C243.338 29.5723 244.176 29.2793 244.82 28.6934C245.172 28.377 245.482 27.9375 245.752 27.375H250.867ZM245.91 21.5039C245.828 20.1797 245.424 19.1777 244.697 18.498C243.982 17.8066 243.092 17.4609 242.025 17.4609C240.865 17.4609 239.963 17.8242 239.318 18.5508C238.686 19.2773 238.287 20.2617 238.123 21.5039H245.91ZM240.127 6H244.627L248.74 11.2559H244.662L242.377 8.30273L240.074 11.2559H235.996L240.127 6ZM276.76 33H265.018V7.08984H277.604C280.779 7.13672 283.029 8.05664 284.354 9.84961C285.15 10.9512 285.549 12.2695 285.549 13.8047C285.549 15.3867 285.15 16.6582 284.354 17.6191C283.908 18.1582 283.252 18.6504 282.385 19.0957C283.709 19.5762 284.705 20.3379 285.373 21.3809C286.053 22.4238 286.393 23.6895 286.393 25.1777C286.393 26.7129 286.006 28.0898 285.232 29.3086C284.74 30.1172 284.125 30.7969 283.387 31.3477C282.555 31.9805 281.57 32.4141 280.434 32.6484C279.309 32.8828 278.084 33 276.76 33ZM276.637 21.5918H270.186V28.5H276.549C277.686 28.5 278.57 28.3477 279.203 28.043C280.352 27.4805 280.926 26.4023 280.926 24.8086C280.926 23.4609 280.369 22.5352 279.256 22.0312C278.635 21.75 277.762 21.6035 276.637 21.5918ZM279.326 16.6523C280.029 16.2305 280.381 15.4746 280.381 14.3848C280.381 13.1777 279.912 12.3809 278.975 11.9941C278.166 11.7246 277.135 11.5898 275.881 11.5898H270.186V17.3027H276.549C277.686 17.3027 278.611 17.0859 279.326 16.6523ZM306.52 16.2656C308.137 18.293 308.945 20.6895 308.945 23.4551C308.945 26.2676 308.137 28.6758 306.52 30.6797C304.902 32.6719 302.447 33.668 299.154 33.668C295.861 33.668 293.406 32.6719 291.789 30.6797C290.172 28.6758 289.363 26.2676 289.363 23.4551C289.363 20.6895 290.172 18.293 291.789 16.2656C293.406 14.2383 295.861 13.2246 299.154 13.2246C302.447 13.2246 304.902 14.2383 306.52 16.2656ZM299.137 17.4609C297.672 17.4609 296.541 17.9824 295.744 19.0254C294.959 20.0566 294.566 21.5332 294.566 23.4551C294.566 25.377 294.959 26.8594 295.744 27.9023C296.541 28.9453 297.672 29.4668 299.137 29.4668C300.602 29.4668 301.727 28.9453 302.512 27.9023C303.297 26.8594 303.689 25.377 303.689 23.4551C303.689 21.5332 303.297 20.0566 302.512 19.0254C301.727 17.9824 300.602 17.4609 299.137 17.4609ZM313.27 15.9141C314.594 14.2266 316.867 13.3828 320.09 13.3828C322.188 13.3828 324.051 13.7988 325.68 14.6309C327.309 15.4629 328.123 17.0332 328.123 19.3418V28.1309C328.123 28.7402 328.135 29.4785 328.158 30.3457C328.193 31.002 328.293 31.4473 328.457 31.6816C328.621 31.916 328.867 32.1094 329.195 32.2617V33H323.746C323.594 32.6133 323.488 32.25 323.43 31.9102C323.371 31.5703 323.324 31.1836 323.289 30.75C322.598 31.5 321.801 32.1387 320.898 32.666C319.82 33.2871 318.602 33.5977 317.242 33.5977C315.508 33.5977 314.072 33.1055 312.936 32.1211C311.811 31.125 311.248 29.7188 311.248 27.9023C311.248 25.5469 312.156 23.8418 313.973 22.7871C314.969 22.2129 316.434 21.8027 318.367 21.5566L320.072 21.3457C320.998 21.2285 321.66 21.082 322.059 20.9062C322.773 20.6016 323.131 20.127 323.131 19.4824C323.131 18.6973 322.855 18.1582 322.305 17.8652C321.766 17.5605 320.969 17.4082 319.914 17.4082C318.73 17.4082 317.893 17.7012 317.4 18.2871C317.049 18.7207 316.814 19.3066 316.697 20.0449H311.863C311.969 18.3691 312.438 16.9922 313.27 15.9141ZM316.996 29.3789C317.465 29.7656 318.039 29.959 318.719 29.959C319.797 29.959 320.787 29.6426 321.689 29.0098C322.604 28.377 323.078 27.2227 323.113 25.5469V23.6836C322.797 23.8828 322.475 24.0469 322.146 24.1758C321.83 24.293 321.391 24.4043 320.828 24.5098L319.703 24.7207C318.648 24.9082 317.893 25.1367 317.436 25.4062C316.662 25.8633 316.275 26.5723 316.275 27.5332C316.275 28.3887 316.516 29.0039 316.996 29.3789ZM342.221 18.4629C340.205 18.4629 338.852 19.1191 338.16 20.4316C337.773 21.1699 337.58 22.3066 337.58 23.8418V33H332.535V13.8398H337.316V17.1797C338.09 15.9023 338.764 15.0293 339.338 14.5605C340.275 13.7754 341.494 13.3828 342.994 13.3828C343.088 13.3828 343.164 13.3887 343.223 13.4004C343.293 13.4004 343.439 13.4062 343.662 13.418V18.5508C343.346 18.5156 343.064 18.4922 342.818 18.4805C342.572 18.4688 342.373 18.4629 342.221 18.4629ZM364.053 7.125V33H359.184V30.3457C358.469 31.4824 357.654 32.3086 356.74 32.8242C355.826 33.3398 354.689 33.5977 353.33 33.5977C351.092 33.5977 349.205 32.6953 347.67 30.8906C346.146 29.0742 345.385 26.748 345.385 23.9121C345.385 20.6426 346.135 18.0703 347.635 16.1953C349.146 14.3203 351.162 13.3828 353.682 13.3828C354.842 13.3828 355.873 13.6406 356.775 14.1562C357.678 14.6602 358.41 15.3633 358.973 16.2656V7.125H364.053ZM350.553 23.543C350.553 25.3125 350.904 26.7246 351.607 27.7793C352.299 28.8457 353.354 29.3789 354.771 29.3789C356.189 29.3789 357.268 28.8516 358.006 27.7969C358.744 26.7422 359.113 25.377 359.113 23.7012C359.113 21.3574 358.521 19.6816 357.338 18.6738C356.611 18.0645 355.768 17.7598 354.807 17.7598C353.342 17.7598 352.264 18.3164 351.572 19.4297C350.893 20.5312 350.553 21.9023 350.553 23.543ZM22.6328 73.3672C21.2031 74.2461 19.4453 74.6855 17.3594 74.6855C13.9258 74.6855 11.1133 73.4961 8.92188 71.1172C6.63672 68.7266 5.49414 65.457 5.49414 61.3086C5.49414 57.1133 6.64844 53.75 8.95703 51.2188C11.2656 48.6875 14.3184 47.4219 18.1152 47.4219C21.4082 47.4219 24.0508 48.2598 26.043 49.9355C28.0469 51.5996 29.1953 53.6797 29.4883 56.1758H24.1621C23.752 54.4062 22.75 53.1699 21.1562 52.4668C20.2656 52.0801 19.2754 51.8867 18.1855 51.8867C16.0996 51.8867 14.3828 52.6777 13.0352 54.2598C11.6992 55.8301 11.0312 58.1973 11.0312 61.3613C11.0312 64.5488 11.7578 66.8047 13.2109 68.1289C14.6641 69.4531 16.3164 70.1152 18.168 70.1152C19.9844 70.1152 21.4727 69.5938 22.6328 68.5508C23.793 67.4961 24.5078 66.1191 24.7773 64.4199H18.7832V60.0957H29.5762V74H25.9902L25.4453 70.7656C24.4023 71.9961 23.4648 72.8633 22.6328 73.3672ZM35.0781 56.9141C36.4023 55.2266 38.6758 54.3828 41.8984 54.3828C43.9961 54.3828 45.8594 54.7988 47.4883 55.6309C49.1172 56.4629 49.9316 58.0332 49.9316 60.3418V69.1309C49.9316 69.7402 49.9434 70.4785 49.9668 71.3457C50.002 72.002 50.1016 72.4473 50.2656 72.6816C50.4297 72.916 50.6758 73.1094 51.0039 73.2617V74H45.5547C45.4023 73.6133 45.2969 73.25 45.2383 72.9102C45.1797 72.5703 45.1328 72.1836 45.0977 71.75C44.4062 72.5 43.6094 73.1387 42.707 73.666C41.6289 74.2871 40.4102 74.5977 39.0508 74.5977C37.3164 74.5977 35.8809 74.1055 34.7441 73.1211C33.6191 72.125 33.0566 70.7188 33.0566 68.9023C33.0566 66.5469 33.9648 64.8418 35.7812 63.7871C36.7773 63.2129 38.2422 62.8027 40.1758 62.5566L41.8809 62.3457C42.8066 62.2285 43.4688 62.082 43.8672 61.9062C44.582 61.6016 44.9395 61.127 44.9395 60.4824C44.9395 59.6973 44.6641 59.1582 44.1133 58.8652C43.5742 58.5605 42.7773 58.4082 41.7227 58.4082C40.5391 58.4082 39.7012 58.7012 39.209 59.2871C38.8574 59.7207 38.623 60.3066 38.5059 61.0449H33.6719C33.7773 59.3691 34.2461 57.9922 35.0781 56.9141ZM38.8047 70.3789C39.2734 70.7656 39.8477 70.959 40.5273 70.959C41.6055 70.959 42.5957 70.6426 43.498 70.0098C44.4121 69.377 44.8867 68.2227 44.9219 66.5469V64.6836C44.6055 64.8828 44.2832 65.0469 43.9551 65.1758C43.6387 65.293 43.1992 65.4043 42.6367 65.5098L41.5117 65.7207C40.457 65.9082 39.7012 66.1367 39.2441 66.4062C38.4707 66.8633 38.084 67.5723 38.084 68.5332C38.084 69.3887 38.3242 70.0039 38.8047 70.3789ZM65.1543 60.1133C64.7324 59.1875 63.9062 58.7246 62.6758 58.7246C61.2461 58.7246 60.2852 59.1875 59.793 60.1133C59.5234 60.6406 59.3887 61.4258 59.3887 62.4688V74H54.3086V54.875H59.1777V57.6699C59.7988 56.6738 60.3848 55.9648 60.9355 55.543C61.9082 54.793 63.168 54.418 64.7148 54.418C66.1797 54.418 67.3633 54.7402 68.2656 55.3848C68.9922 55.9824 69.543 56.75 69.918 57.6875C70.5742 56.5625 71.3887 55.7363 72.3613 55.209C73.3926 54.6816 74.541 54.418 75.8066 54.418C76.6504 54.418 77.4824 54.582 78.3027 54.9102C79.123 55.2383 79.8672 55.8125 80.5352 56.6328C81.0742 57.3008 81.4375 58.1211 81.625 59.0938C81.7422 59.7383 81.8008 60.6816 81.8008 61.9238L81.7656 74H76.6328V61.8008C76.6328 61.0742 76.5156 60.4766 76.2812 60.0078C75.8359 59.1172 75.0156 58.6719 73.8203 58.6719C72.4375 58.6719 71.4824 59.2461 70.9551 60.3945C70.6855 61.0039 70.5508 61.7363 70.5508 62.5918V74H65.5059V62.5918C65.5059 61.4551 65.3887 60.6289 65.1543 60.1133ZM102.824 68.375C102.695 69.5117 102.104 70.666 101.049 71.8379C99.4082 73.7012 97.1113 74.6328 94.1582 74.6328C91.7207 74.6328 89.5703 73.8477 87.707 72.2773C85.8438 70.707 84.9121 68.1523 84.9121 64.6133C84.9121 61.2969 85.75 58.7539 87.4258 56.9844C89.1133 55.2148 91.2988 54.3301 93.9824 54.3301C95.5762 54.3301 97.0117 54.6289 98.2891 55.2266C99.5664 55.8242 100.621 56.7676 101.453 58.0566C102.203 59.1934 102.689 60.5117 102.912 62.0117C103.041 62.8906 103.094 64.1562 103.07 65.8086H89.957C90.0273 67.7305 90.6309 69.0781 91.7676 69.8516C92.459 70.332 93.291 70.5723 94.2637 70.5723C95.2949 70.5723 96.1328 70.2793 96.7773 69.6934C97.1289 69.377 97.4395 68.9375 97.709 68.375H102.824ZM97.8672 62.5039C97.7852 61.1797 97.3809 60.1777 96.6543 59.498C95.9395 58.8066 95.0488 58.4609 93.9824 58.4609C92.8223 58.4609 91.9199 58.8242 91.2754 59.5508C90.6426 60.2773 90.2441 61.2617 90.0801 62.5039H97.8672ZM127.82 64.4375C127.68 64.8828 127.604 65.5742 127.592 66.5117H122.846C122.916 64.5312 123.104 63.166 123.408 62.416C123.713 61.6543 124.498 60.7812 125.764 59.7969L127.047 58.7949C127.469 58.4785 127.809 58.1328 128.066 57.7578C128.535 57.1133 128.77 56.4043 128.77 55.6309C128.77 54.7402 128.506 53.9316 127.979 53.2051C127.463 52.4668 126.514 52.0977 125.131 52.0977C123.771 52.0977 122.805 52.5488 122.23 53.4512C121.668 54.3535 121.387 55.291 121.387 56.2637H116.307C116.447 52.9238 117.613 50.5566 119.805 49.1621C121.188 48.2715 122.887 47.8262 124.902 47.8262C127.551 47.8262 129.748 48.459 131.494 49.7246C133.252 50.9902 134.131 52.8652 134.131 55.3496C134.131 56.873 133.75 58.1562 132.988 59.1992C132.543 59.832 131.688 60.6406 130.422 61.625L129.174 62.5918C128.494 63.1191 128.043 63.7344 127.82 64.4375ZM127.961 74H122.723V68.9199H127.961V74Z" fill="black"/>
</g>
<path d="M12.8867 108.121L10.709 101.783L8.39453 108.121H12.8867ZM9.69336 99.6543H11.8906L17.0957 114H14.9668L13.5117 109.703H7.83789L6.28516 114H4.29297L9.69336 99.6543ZM19.6738 110.719C19.7259 111.305 19.8724 111.754 20.1133 112.066C20.556 112.633 21.3242 112.916 22.418 112.916C23.069 112.916 23.6419 112.776 24.1367 112.496C24.6315 112.21 24.8789 111.77 24.8789 111.178C24.8789 110.729 24.6803 110.387 24.2832 110.152C24.0293 110.009 23.528 109.843 22.7793 109.654L21.3828 109.303C20.4909 109.081 19.8333 108.834 19.4102 108.561C18.6549 108.085 18.2773 107.428 18.2773 106.588C18.2773 105.598 18.6322 104.798 19.3418 104.186C20.0579 103.574 21.0182 103.268 22.2227 103.268C23.7982 103.268 24.9342 103.73 25.6309 104.654C26.0671 105.24 26.2786 105.872 26.2656 106.549H24.6055C24.5729 106.152 24.4329 105.79 24.1855 105.465C23.7819 105.003 23.082 104.771 22.0859 104.771C21.4219 104.771 20.9173 104.898 20.5723 105.152C20.2337 105.406 20.0645 105.742 20.0645 106.158C20.0645 106.614 20.2891 106.979 20.7383 107.252C20.9987 107.415 21.3828 107.558 21.8906 107.682L23.0527 107.965C24.3158 108.271 25.1621 108.567 25.5918 108.854C26.2754 109.303 26.6172 110.009 26.6172 110.973C26.6172 111.904 26.2624 112.708 25.5527 113.385C24.8496 114.062 23.7754 114.4 22.3301 114.4C20.7741 114.4 19.6706 114.049 19.0195 113.346C18.375 112.636 18.0299 111.76 17.9844 110.719H19.6738ZM28.9805 100.621H30.7578V103.541H32.4277V104.977H30.7578V111.803C30.7578 112.167 30.8815 112.411 31.1289 112.535C31.2656 112.607 31.4935 112.643 31.8125 112.643C31.8971 112.643 31.9883 112.643 32.0859 112.643C32.1836 112.636 32.2975 112.626 32.4277 112.613V114C32.2259 114.059 32.0143 114.101 31.793 114.127C31.5781 114.153 31.3438 114.166 31.0898 114.166C30.2695 114.166 29.7129 113.958 29.4199 113.541C29.127 113.118 28.9805 112.571 28.9805 111.9V104.977H27.5645V103.541H28.9805V100.621ZM34.2441 103.541H35.9141V105.348C36.0508 104.996 36.3861 104.57 36.9199 104.068C37.4538 103.561 38.069 103.307 38.7656 103.307C38.7982 103.307 38.8535 103.31 38.9316 103.316C39.0098 103.323 39.1432 103.336 39.332 103.355V105.211C39.2279 105.191 39.1302 105.178 39.0391 105.172C38.9544 105.165 38.86 105.162 38.7559 105.162C37.8704 105.162 37.1901 105.449 36.7148 106.021C36.2396 106.588 36.002 107.242 36.002 107.984V114H34.2441V103.541ZM45.0059 112.867C46.1712 112.867 46.9688 112.428 47.3984 111.549C47.8346 110.663 48.0527 109.68 48.0527 108.6C48.0527 107.623 47.8965 106.829 47.584 106.217C47.0892 105.253 46.2363 104.771 45.0254 104.771C43.9512 104.771 43.1699 105.182 42.6816 106.002C42.1934 106.822 41.9492 107.812 41.9492 108.971C41.9492 110.084 42.1934 111.012 42.6816 111.754C43.1699 112.496 43.9447 112.867 45.0059 112.867ZM45.0742 103.238C46.4219 103.238 47.5612 103.688 48.4922 104.586C49.4232 105.484 49.8887 106.806 49.8887 108.551C49.8887 110.237 49.4785 111.63 48.6582 112.73C47.8379 113.831 46.5651 114.381 44.8398 114.381C43.401 114.381 42.2585 113.896 41.4121 112.926C40.5658 111.949 40.1426 110.641 40.1426 109C40.1426 107.242 40.5885 105.842 41.4805 104.801C42.3724 103.759 43.5703 103.238 45.0742 103.238ZM53.0332 110.719C53.0853 111.305 53.2318 111.754 53.4727 112.066C53.9154 112.633 54.6836 112.916 55.7773 112.916C56.4284 112.916 57.0013 112.776 57.4961 112.496C57.9909 112.21 58.2383 111.77 58.2383 111.178C58.2383 110.729 58.0397 110.387 57.6426 110.152C57.3887 110.009 56.8874 109.843 56.1387 109.654L54.7422 109.303C53.8503 109.081 53.1927 108.834 52.7695 108.561C52.0143 108.085 51.6367 107.428 51.6367 106.588C51.6367 105.598 51.9915 104.798 52.7012 104.186C53.4173 103.574 54.3776 103.268 55.582 103.268C57.1576 103.268 58.2936 103.73 58.9902 104.654C59.4264 105.24 59.638 105.872 59.625 106.549H57.9648C57.9323 106.152 57.7923 105.79 57.5449 105.465C57.1413 105.003 56.4414 104.771 55.4453 104.771C54.7812 104.771 54.2767 104.898 53.9316 105.152C53.5931 105.406 53.4238 105.742 53.4238 106.158C53.4238 106.614 53.6484 106.979 54.0977 107.252C54.3581 107.415 54.7422 107.558 55.25 107.682L56.4121 107.965C57.6751 108.271 58.5215 108.567 58.9512 108.854C59.6348 109.303 59.9766 110.009 59.9766 110.973C59.9766 111.904 59.6217 112.708 58.9121 113.385C58.209 114.062 57.1348 114.4 55.6895 114.4C54.1335 114.4 53.0299 114.049 52.3789 113.346C51.7344 112.636 51.3893 111.76 51.3438 110.719H53.0332ZM71.5879 103.238C72.7663 103.238 73.7233 103.525 74.459 104.098C75.2012 104.671 75.6471 105.657 75.7969 107.057H74.0879C73.9837 106.412 73.7461 105.878 73.375 105.455C73.0039 105.025 72.4082 104.811 71.5879 104.811C70.4681 104.811 69.6673 105.357 69.1855 106.451C68.873 107.161 68.7168 108.036 68.7168 109.078C68.7168 110.126 68.9382 111.008 69.3809 111.725C69.8236 112.441 70.5202 112.799 71.4707 112.799C72.1999 112.799 72.776 112.577 73.1992 112.135C73.6289 111.686 73.9251 111.074 74.0879 110.299H75.7969C75.6016 111.686 75.1133 112.701 74.332 113.346C73.5508 113.984 72.5514 114.303 71.334 114.303C69.9668 114.303 68.8763 113.805 68.0625 112.809C67.2487 111.806 66.8418 110.556 66.8418 109.059C66.8418 107.223 67.2878 105.794 68.1797 104.771C69.0716 103.749 70.2077 103.238 71.5879 103.238ZM78.9023 111.217C78.9023 111.725 79.0879 112.125 79.459 112.418C79.8301 112.711 80.2695 112.857 80.7773 112.857C81.3958 112.857 81.9948 112.714 82.5742 112.428C83.5508 111.952 84.0391 111.174 84.0391 110.094V108.678C83.8242 108.814 83.5475 108.928 83.209 109.02C82.8704 109.111 82.5384 109.176 82.2129 109.215L81.1484 109.352C80.5104 109.436 80.0319 109.57 79.7129 109.752C79.1725 110.058 78.9023 110.546 78.9023 111.217ZM83.1602 107.662C83.5638 107.61 83.834 107.441 83.9707 107.154C84.0488 106.998 84.0879 106.773 84.0879 106.48C84.0879 105.882 83.873 105.449 83.4434 105.182C83.0202 104.908 82.4115 104.771 81.6172 104.771C80.6992 104.771 80.0482 105.019 79.6641 105.514C79.4492 105.787 79.3092 106.194 79.2441 106.734H77.6035C77.6361 105.445 78.0527 104.55 78.8535 104.049C79.6608 103.541 80.5951 103.287 81.6562 103.287C82.8867 103.287 83.8861 103.521 84.6543 103.99C85.416 104.459 85.7969 105.188 85.7969 106.178V112.203C85.7969 112.385 85.8327 112.532 85.9043 112.643C85.9824 112.753 86.1419 112.809 86.3828 112.809C86.4609 112.809 86.5488 112.805 86.6465 112.799C86.7441 112.786 86.8483 112.77 86.959 112.75V114.049C86.6855 114.127 86.4772 114.176 86.334 114.195C86.1908 114.215 85.9954 114.225 85.748 114.225C85.1426 114.225 84.7031 114.01 84.4297 113.58C84.2865 113.352 84.1855 113.03 84.127 112.613C83.7689 113.082 83.2546 113.489 82.584 113.834C81.9134 114.179 81.1745 114.352 80.3672 114.352C79.3971 114.352 78.6029 114.059 77.9844 113.473C77.3724 112.88 77.0664 112.141 77.0664 111.256C77.0664 110.286 77.3691 109.534 77.9746 109C78.5801 108.466 79.3743 108.137 80.3574 108.014L83.1602 107.662ZM88.6875 103.541H90.4258V105.025C90.8424 104.511 91.2201 104.137 91.5586 103.902C92.138 103.505 92.7956 103.307 93.5312 103.307C94.3646 103.307 95.0352 103.512 95.543 103.922C95.8294 104.156 96.0898 104.501 96.3242 104.957C96.7148 104.397 97.1738 103.984 97.7012 103.717C98.2285 103.443 98.821 103.307 99.4785 103.307C100.885 103.307 101.842 103.814 102.35 104.83C102.623 105.377 102.76 106.113 102.76 107.037V114H100.934V106.734C100.934 106.038 100.758 105.559 100.406 105.299C100.061 105.038 99.638 104.908 99.1367 104.908C98.4466 104.908 97.8509 105.139 97.3496 105.602C96.8548 106.064 96.6074 106.835 96.6074 107.916V114H94.8203V107.174C94.8203 106.464 94.7357 105.947 94.5664 105.621C94.2995 105.133 93.8014 104.889 93.0723 104.889C92.4082 104.889 91.8027 105.146 91.2559 105.66C90.7155 106.174 90.4453 107.105 90.4453 108.453V114H88.6875V103.541ZM110.875 99.6543H112.564V107.984L117.076 103.541H119.322L115.318 107.457L119.547 114H117.301L114.039 108.727L112.564 110.074V114H110.875V99.6543ZM125.27 103.307C126.012 103.307 126.731 103.482 127.428 103.834C128.124 104.179 128.655 104.628 129.02 105.182C129.371 105.709 129.605 106.324 129.723 107.027C129.827 107.509 129.879 108.277 129.879 109.332H122.213C122.245 110.393 122.496 111.246 122.965 111.891C123.434 112.529 124.16 112.848 125.143 112.848C126.061 112.848 126.793 112.545 127.34 111.939C127.652 111.588 127.874 111.181 128.004 110.719H129.732C129.687 111.103 129.534 111.533 129.273 112.008C129.02 112.477 128.733 112.861 128.414 113.16C127.88 113.681 127.219 114.033 126.432 114.215C126.008 114.319 125.53 114.371 124.996 114.371C123.694 114.371 122.59 113.899 121.686 112.955C120.781 112.005 120.328 110.676 120.328 108.971C120.328 107.291 120.784 105.927 121.695 104.879C122.607 103.831 123.798 103.307 125.27 103.307ZM128.072 107.936C128.001 107.174 127.835 106.565 127.574 106.109C127.092 105.263 126.288 104.84 125.162 104.84C124.355 104.84 123.678 105.133 123.131 105.719C122.584 106.298 122.294 107.037 122.262 107.936H128.072ZM125.836 99.498L127.828 102.32H126.227L124.908 100.445L123.59 102.32H121.998L123.98 99.498H125.836ZM130.367 97.6133L127.76 100.436H126.412L128.199 97.6133H130.367ZM132.398 100.621H134.176V103.541H135.846V104.977H134.176V111.803C134.176 112.167 134.299 112.411 134.547 112.535C134.684 112.607 134.911 112.643 135.23 112.643C135.315 112.643 135.406 112.643 135.504 112.643C135.602 112.636 135.715 112.626 135.846 112.613V114C135.644 114.059 135.432 114.101 135.211 114.127C134.996 114.153 134.762 114.166 134.508 114.166C133.688 114.166 133.131 113.958 132.838 113.541C132.545 113.118 132.398 112.571 132.398 111.9V104.977H130.982V103.541H132.398V100.621ZM143.229 99.6543H144.986V114H143.229V99.6543ZM148.98 111.217C148.98 111.725 149.166 112.125 149.537 112.418C149.908 112.711 150.348 112.857 150.855 112.857C151.474 112.857 152.073 112.714 152.652 112.428C153.629 111.952 154.117 111.174 154.117 110.094V108.678C153.902 108.814 153.626 108.928 153.287 109.02C152.949 109.111 152.617 109.176 152.291 109.215L151.227 109.352C150.589 109.436 150.11 109.57 149.791 109.752C149.251 110.058 148.98 110.546 148.98 111.217ZM153.238 107.662C153.642 107.61 153.912 107.441 154.049 107.154C154.127 106.998 154.166 106.773 154.166 106.48C154.166 105.882 153.951 105.449 153.521 105.182C153.098 104.908 152.49 104.771 151.695 104.771C150.777 104.771 150.126 105.019 149.742 105.514C149.527 105.787 149.387 106.194 149.322 106.734H147.682C147.714 105.445 148.131 104.55 148.932 104.049C149.739 103.541 150.673 103.287 151.734 103.287C152.965 103.287 153.964 103.521 154.732 103.99C155.494 104.459 155.875 105.188 155.875 106.178V112.203C155.875 112.385 155.911 112.532 155.982 112.643C156.061 112.753 156.22 112.809 156.461 112.809C156.539 112.809 156.627 112.805 156.725 112.799C156.822 112.786 156.926 112.77 157.037 112.75V114.049C156.764 114.127 156.555 114.176 156.412 114.195C156.269 114.215 156.074 114.225 155.826 114.225C155.221 114.225 154.781 114.01 154.508 113.58C154.365 113.352 154.264 113.03 154.205 112.613C153.847 113.082 153.333 113.489 152.662 113.834C151.992 114.179 151.253 114.352 150.445 114.352C149.475 114.352 148.681 114.059 148.062 113.473C147.451 112.88 147.145 112.141 147.145 111.256C147.145 110.286 147.447 109.534 148.053 109C148.658 108.466 149.452 108.137 150.436 108.014L153.238 107.662ZM153.053 102.154H151.715L149.098 99.332H151.275L153.053 102.154ZM168.365 103.238C169.544 103.238 170.501 103.525 171.236 104.098C171.979 104.671 172.424 105.657 172.574 107.057H170.865C170.761 106.412 170.523 105.878 170.152 105.455C169.781 105.025 169.186 104.811 168.365 104.811C167.245 104.811 166.445 105.357 165.963 106.451C165.65 107.161 165.494 108.036 165.494 109.078C165.494 110.126 165.715 111.008 166.158 111.725C166.601 112.441 167.298 112.799 168.248 112.799C168.977 112.799 169.553 112.577 169.977 112.135C170.406 111.686 170.702 111.074 170.865 110.299H172.574C172.379 111.686 171.891 112.701 171.109 113.346C170.328 113.984 169.329 114.303 168.111 114.303C166.744 114.303 165.654 113.805 164.84 112.809C164.026 111.806 163.619 110.556 163.619 109.059C163.619 107.223 164.065 105.794 164.957 104.771C165.849 103.749 166.985 103.238 168.365 103.238ZM176.09 103.541V110.484C176.09 111.018 176.174 111.454 176.344 111.793C176.656 112.418 177.239 112.73 178.092 112.73C179.316 112.73 180.149 112.184 180.592 111.09C180.833 110.504 180.953 109.7 180.953 108.678V103.541H182.711V105.055C182.841 105.061 182.984 105.048 183.141 105.016C183.453 104.996 183.736 104.934 183.99 104.83L184.098 104.781C184.13 104.762 184.163 104.736 184.195 104.703L183.795 103.727L185.758 102.906L186.559 104.84L184.732 105.592C184.036 105.885 183.362 106.018 182.711 105.992V114H181.051L181.07 112.457C180.842 112.854 180.559 113.189 180.221 113.463C179.55 114.01 178.736 114.283 177.779 114.283C176.288 114.283 175.273 113.785 174.732 112.789C174.439 112.255 174.293 111.542 174.293 110.65V103.541H176.09ZM178.697 100.562C178.6 100.497 178.499 100.452 178.395 100.426C178.297 100.393 178.173 100.377 178.023 100.377C177.867 100.377 177.656 100.396 177.389 100.436L177.35 99.6641C177.493 99.6445 177.633 99.6283 177.77 99.6152C177.913 99.6022 178.049 99.5957 178.18 99.5957C178.512 99.5957 178.818 99.651 179.098 99.7617C179.378 99.8659 179.625 100.071 179.84 100.377C179.898 100.462 179.947 100.572 179.986 100.709C180.032 100.846 180.055 100.992 180.055 101.148C180.055 101.279 180.035 101.412 179.996 101.549C179.957 101.686 179.889 101.816 179.791 101.939C179.693 102.057 179.56 102.161 179.391 102.252C179.228 102.343 179.023 102.415 178.775 102.467L178.736 102.896H177.877V102.154C178.268 102.115 178.567 102.001 178.775 101.812C178.99 101.617 179.098 101.409 179.098 101.188C179.098 101.07 179.065 100.96 179 100.855C178.935 100.745 178.834 100.647 178.697 100.562ZM189.645 111.217C189.645 111.725 189.83 112.125 190.201 112.418C190.572 112.711 191.012 112.857 191.52 112.857C192.138 112.857 192.737 112.714 193.316 112.428C194.293 111.952 194.781 111.174 194.781 110.094V108.678C194.566 108.814 194.29 108.928 193.951 109.02C193.613 109.111 193.281 109.176 192.955 109.215L191.891 109.352C191.253 109.436 190.774 109.57 190.455 109.752C189.915 110.058 189.645 110.546 189.645 111.217ZM193.902 107.662C194.306 107.61 194.576 107.441 194.713 107.154C194.791 106.998 194.83 106.773 194.83 106.48C194.83 105.882 194.615 105.449 194.186 105.182C193.762 104.908 193.154 104.771 192.359 104.771C191.441 104.771 190.79 105.019 190.406 105.514C190.191 105.787 190.051 106.194 189.986 106.734H188.346C188.378 105.445 188.795 104.55 189.596 104.049C190.403 103.541 191.337 103.287 192.398 103.287C193.629 103.287 194.628 103.521 195.396 103.99C196.158 104.459 196.539 105.188 196.539 106.178V112.203C196.539 112.385 196.575 112.532 196.646 112.643C196.725 112.753 196.884 112.809 197.125 112.809C197.203 112.809 197.291 112.805 197.389 112.799C197.486 112.786 197.59 112.77 197.701 112.75V114.049C197.428 114.127 197.219 114.176 197.076 114.195C196.933 114.215 196.738 114.225 196.49 114.225C195.885 114.225 195.445 114.01 195.172 113.58C195.029 113.352 194.928 113.03 194.869 112.613C194.511 113.082 193.997 113.489 193.326 113.834C192.656 114.179 191.917 114.352 191.109 114.352C190.139 114.352 189.345 114.059 188.727 113.473C188.115 112.88 187.809 112.141 187.809 111.256C187.809 110.286 188.111 109.534 188.717 109C189.322 108.466 190.117 108.137 191.1 108.014L193.902 107.662ZM204.996 99.6055H206.754V104.957C207.171 104.43 207.545 104.059 207.877 103.844C208.443 103.473 209.15 103.287 209.996 103.287C211.513 103.287 212.542 103.818 213.082 104.879C213.375 105.458 213.521 106.262 213.521 107.291V114H211.715V107.408C211.715 106.64 211.617 106.077 211.422 105.719C211.103 105.146 210.504 104.859 209.625 104.859C208.896 104.859 208.235 105.11 207.643 105.611C207.05 106.113 206.754 107.06 206.754 108.453V114H204.996V99.6055ZM217.477 111.217C217.477 111.725 217.662 112.125 218.033 112.418C218.404 112.711 218.844 112.857 219.352 112.857C219.97 112.857 220.569 112.714 221.148 112.428C222.125 111.952 222.613 111.174 222.613 110.094V108.678C222.398 108.814 222.122 108.928 221.783 109.02C221.445 109.111 221.113 109.176 220.787 109.215L219.723 109.352C219.085 109.436 218.606 109.57 218.287 109.752C217.747 110.058 217.477 110.546 217.477 111.217ZM221.734 107.662C222.138 107.61 222.408 107.441 222.545 107.154C222.623 106.998 222.662 106.773 222.662 106.48C222.662 105.882 222.447 105.449 222.018 105.182C221.594 104.908 220.986 104.771 220.191 104.771C219.273 104.771 218.622 105.019 218.238 105.514C218.023 105.787 217.883 106.194 217.818 106.734H216.178C216.21 105.445 216.627 104.55 217.428 104.049C218.235 103.541 219.169 103.287 220.23 103.287C221.461 103.287 222.46 103.521 223.229 103.99C223.99 104.459 224.371 105.188 224.371 106.178V112.203C224.371 112.385 224.407 112.532 224.479 112.643C224.557 112.753 224.716 112.809 224.957 112.809C225.035 112.809 225.123 112.805 225.221 112.799C225.318 112.786 225.423 112.77 225.533 112.75V114.049C225.26 114.127 225.051 114.176 224.908 114.195C224.765 114.215 224.57 114.225 224.322 114.225C223.717 114.225 223.277 114.01 223.004 113.58C222.861 113.352 222.76 113.03 222.701 112.613C222.343 113.082 221.829 113.489 221.158 113.834C220.488 114.179 219.749 114.352 218.941 114.352C217.971 114.352 217.177 114.059 216.559 113.473C215.947 112.88 215.641 112.141 215.641 111.256C215.641 110.286 215.943 109.534 216.549 109C217.154 108.466 217.949 108.137 218.932 108.014L221.734 107.662ZM221.549 102.154H220.211L217.594 99.332H219.771L221.549 102.154ZM227.262 103.541H228.932V105.025C229.426 104.413 229.951 103.974 230.504 103.707C231.057 103.44 231.673 103.307 232.35 103.307C233.834 103.307 234.837 103.824 235.357 104.859C235.644 105.426 235.787 106.236 235.787 107.291V114H234V107.408C234 106.77 233.906 106.256 233.717 105.865C233.404 105.214 232.838 104.889 232.018 104.889C231.601 104.889 231.259 104.931 230.992 105.016C230.51 105.159 230.087 105.445 229.723 105.875C229.43 106.22 229.238 106.578 229.146 106.949C229.062 107.314 229.02 107.838 229.02 108.521V114H227.262V103.541ZM242.086 103.355C242.906 103.355 243.622 103.557 244.234 103.961C244.566 104.189 244.905 104.521 245.25 104.957V103.639H246.871V113.15C246.871 114.479 246.676 115.527 246.285 116.295C245.556 117.714 244.179 118.424 242.154 118.424C241.028 118.424 240.081 118.17 239.312 117.662C238.544 117.161 238.115 116.373 238.023 115.299H239.811C239.895 115.768 240.064 116.129 240.318 116.383C240.715 116.773 241.34 116.969 242.193 116.969C243.541 116.969 244.423 116.493 244.84 115.543C245.087 114.983 245.201 113.984 245.182 112.545C244.83 113.079 244.407 113.476 243.912 113.736C243.417 113.997 242.763 114.127 241.949 114.127C240.816 114.127 239.824 113.727 238.971 112.926C238.124 112.118 237.701 110.787 237.701 108.932C237.701 107.18 238.128 105.813 238.98 104.83C239.84 103.847 240.875 103.355 242.086 103.355ZM245.25 108.727C245.25 107.431 244.983 106.471 244.449 105.846C243.915 105.221 243.235 104.908 242.408 104.908C241.171 104.908 240.325 105.488 239.869 106.646C239.628 107.265 239.508 108.076 239.508 109.078C239.508 110.257 239.745 111.155 240.221 111.773C240.702 112.385 241.347 112.691 242.154 112.691C243.417 112.691 244.306 112.122 244.82 110.982C245.107 110.338 245.25 109.586 245.25 108.727ZM259.127 103.238C260.305 103.238 261.262 103.525 261.998 104.098C262.74 104.671 263.186 105.657 263.336 107.057H261.627C261.523 106.412 261.285 105.878 260.914 105.455C260.543 105.025 259.947 104.811 259.127 104.811C258.007 104.811 257.206 105.357 256.725 106.451C256.412 107.161 256.256 108.036 256.256 109.078C256.256 110.126 256.477 111.008 256.92 111.725C257.363 112.441 258.059 112.799 259.01 112.799C259.739 112.799 260.315 112.577 260.738 112.135C261.168 111.686 261.464 111.074 261.627 110.299H263.336C263.141 111.686 262.652 112.701 261.871 113.346C261.09 113.984 260.09 114.303 258.873 114.303C257.506 114.303 256.415 113.805 255.602 112.809C254.788 111.806 254.381 110.556 254.381 109.059C254.381 107.223 254.827 105.794 255.719 104.771C256.611 103.749 257.747 103.238 259.127 103.238ZM266.852 103.541V110.484C266.852 111.018 266.936 111.454 267.105 111.793C267.418 112.418 268.001 112.73 268.854 112.73C270.077 112.73 270.911 112.184 271.354 111.09C271.594 110.504 271.715 109.7 271.715 108.678V103.541H273.473V114H271.812L271.832 112.457C271.604 112.854 271.321 113.189 270.982 113.463C270.312 114.01 269.498 114.283 268.541 114.283C267.05 114.283 266.035 113.785 265.494 112.789C265.201 112.255 265.055 111.542 265.055 110.65V103.541H266.852ZM276.227 103.541H277.896V105.025C278.391 104.413 278.915 103.974 279.469 103.707C280.022 103.44 280.637 103.307 281.314 103.307C282.799 103.307 283.801 103.824 284.322 104.859C284.609 105.426 284.752 106.236 284.752 107.291V114H282.965V107.408C282.965 106.77 282.87 106.256 282.682 105.865C282.369 105.214 281.803 104.889 280.982 104.889C280.566 104.889 280.224 104.931 279.957 105.016C279.475 105.159 279.052 105.445 278.688 105.875C278.395 106.22 278.202 106.578 278.111 106.949C278.027 107.314 277.984 107.838 277.984 108.521V114H276.227V103.541ZM291.051 103.355C291.871 103.355 292.587 103.557 293.199 103.961C293.531 104.189 293.87 104.521 294.215 104.957V103.639H295.836V113.15C295.836 114.479 295.641 115.527 295.25 116.295C294.521 117.714 293.144 118.424 291.119 118.424C289.993 118.424 289.046 118.17 288.277 117.662C287.509 117.161 287.079 116.373 286.988 115.299H288.775C288.86 115.768 289.029 116.129 289.283 116.383C289.68 116.773 290.305 116.969 291.158 116.969C292.506 116.969 293.388 116.493 293.805 115.543C294.052 114.983 294.166 113.984 294.146 112.545C293.795 113.079 293.372 113.476 292.877 113.736C292.382 113.997 291.728 114.127 290.914 114.127C289.781 114.127 288.788 113.727 287.936 112.926C287.089 112.118 286.666 110.787 286.666 108.932C286.666 107.18 287.092 105.813 287.945 104.83C288.805 103.847 289.84 103.355 291.051 103.355ZM294.215 108.727C294.215 107.431 293.948 106.471 293.414 105.846C292.88 105.221 292.2 104.908 291.373 104.908C290.136 104.908 289.29 105.488 288.834 106.646C288.593 107.265 288.473 108.076 288.473 109.078C288.473 110.257 288.71 111.155 289.186 111.773C289.667 112.385 290.312 112.691 291.119 112.691C292.382 112.691 293.271 112.122 293.785 110.982C294.072 110.338 294.215 109.586 294.215 108.727ZM308.092 103.238C309.27 103.238 310.227 103.525 310.963 104.098C311.705 104.671 312.151 105.657 312.301 107.057H310.592C310.488 106.412 310.25 105.878 309.879 105.455C309.508 105.025 308.912 104.811 308.092 104.811C306.972 104.811 306.171 105.357 305.689 106.451C305.377 107.161 305.221 108.036 305.221 109.078C305.221 110.126 305.442 111.008 305.885 111.725C306.327 112.441 307.024 112.799 307.975 112.799C308.704 112.799 309.28 112.577 309.703 112.135C310.133 111.686 310.429 111.074 310.592 110.299H312.301C312.105 111.686 311.617 112.701 310.836 113.346C310.055 113.984 309.055 114.303 307.838 114.303C306.471 114.303 305.38 113.805 304.566 112.809C303.753 111.806 303.346 110.556 303.346 109.059C303.346 107.223 303.792 105.794 304.684 104.771C305.576 103.749 306.712 103.238 308.092 103.238ZM315.406 111.217C315.406 111.725 315.592 112.125 315.963 112.418C316.334 112.711 316.773 112.857 317.281 112.857C317.9 112.857 318.499 112.714 319.078 112.428C320.055 111.952 320.543 111.174 320.543 110.094V108.678C320.328 108.814 320.051 108.928 319.713 109.02C319.374 109.111 319.042 109.176 318.717 109.215L317.652 109.352C317.014 109.436 316.536 109.57 316.217 109.752C315.676 110.058 315.406 110.546 315.406 111.217ZM319.664 107.662C320.068 107.61 320.338 107.441 320.475 107.154C320.553 106.998 320.592 106.773 320.592 106.48C320.592 105.882 320.377 105.449 319.947 105.182C319.524 104.908 318.915 104.771 318.121 104.771C317.203 104.771 316.552 105.019 316.168 105.514C315.953 105.787 315.813 106.194 315.748 106.734H314.107C314.14 105.445 314.557 104.55 315.357 104.049C316.165 103.541 317.099 103.287 318.16 103.287C319.391 103.287 320.39 103.521 321.158 103.99C321.92 104.459 322.301 105.188 322.301 106.178V112.203C322.301 112.385 322.337 112.532 322.408 112.643C322.486 112.753 322.646 112.809 322.887 112.809C322.965 112.809 323.053 112.805 323.15 112.799C323.248 112.786 323.352 112.77 323.463 112.75V114.049C323.189 114.127 322.981 114.176 322.838 114.195C322.695 114.215 322.499 114.225 322.252 114.225C321.646 114.225 321.207 114.01 320.934 113.58C320.79 113.352 320.689 113.03 320.631 112.613C320.273 113.082 319.758 113.489 319.088 113.834C318.417 114.179 317.678 114.352 316.871 114.352C315.901 114.352 315.107 114.059 314.488 113.473C313.876 112.88 313.57 112.141 313.57 111.256C313.57 110.286 313.873 109.534 314.479 109C315.084 108.466 315.878 108.137 316.861 108.014L319.664 107.662ZM319.195 99.7031L321.188 102.525H319.586L318.268 100.65L316.949 102.525H315.357L317.34 99.7031H319.195ZM323.395 97.7109L320.787 100.533H319.439L321.227 97.7109H323.395ZM329.605 112.818C330.426 112.818 331.106 112.477 331.646 111.793C332.193 111.103 332.467 110.074 332.467 108.707C332.467 107.874 332.346 107.158 332.105 106.559C331.65 105.406 330.816 104.83 329.605 104.83C328.388 104.83 327.555 105.439 327.105 106.656C326.865 107.307 326.744 108.134 326.744 109.137C326.744 109.944 326.865 110.631 327.105 111.197C327.561 112.278 328.395 112.818 329.605 112.818ZM325.055 103.59H326.764V104.977C327.115 104.501 327.499 104.133 327.916 103.873C328.508 103.482 329.205 103.287 330.006 103.287C331.191 103.287 332.197 103.743 333.023 104.654C333.85 105.559 334.264 106.855 334.264 108.541C334.264 110.82 333.668 112.447 332.477 113.424C331.721 114.042 330.842 114.352 329.84 114.352C329.052 114.352 328.391 114.179 327.857 113.834C327.545 113.639 327.197 113.303 326.812 112.828V118.17H325.055V103.59ZM343.004 108.893C343.004 110.012 343.242 110.95 343.717 111.705C344.192 112.46 344.954 112.838 346.002 112.838C346.816 112.838 347.483 112.49 348.004 111.793C348.531 111.09 348.795 110.084 348.795 108.775C348.795 107.454 348.525 106.477 347.984 105.846C347.444 105.208 346.777 104.889 345.982 104.889C345.097 104.889 344.378 105.227 343.824 105.904C343.277 106.581 343.004 107.577 343.004 108.893ZM345.65 103.355C346.451 103.355 347.122 103.525 347.662 103.863C347.975 104.059 348.329 104.4 348.727 104.889V99.6055H350.416V114H348.834V112.545C348.424 113.189 347.939 113.655 347.379 113.941C346.819 114.228 346.178 114.371 345.455 114.371C344.29 114.371 343.281 113.883 342.428 112.906C341.575 111.923 341.148 110.618 341.148 108.99C341.148 107.467 341.536 106.148 342.311 105.035C343.092 103.915 344.205 103.355 345.65 103.355ZM353.023 103.59H354.811V114H353.023V103.59ZM353.023 99.6543H354.811V101.646H353.023V99.6543ZM353.062 114.889H354.889V116.92H353.062V114.889ZM361.51 103.238C362.688 103.238 363.645 103.525 364.381 104.098C365.123 104.671 365.569 105.657 365.719 107.057H364.01C363.906 106.412 363.668 105.878 363.297 105.455C362.926 105.025 362.33 104.811 361.51 104.811C360.39 104.811 359.589 105.357 359.107 106.451C358.795 107.161 358.639 108.036 358.639 109.078C358.639 110.126 358.86 111.008 359.303 111.725C359.745 112.441 360.442 112.799 361.393 112.799C362.122 112.799 362.698 112.577 363.121 112.135C363.551 111.686 363.847 111.074 364.01 110.299H365.719C365.523 111.686 365.035 112.701 364.254 113.346C363.473 113.984 362.473 114.303 361.256 114.303C359.889 114.303 358.798 113.805 357.984 112.809C357.171 111.806 356.764 110.556 356.764 109.059C356.764 107.223 357.21 105.794 358.102 104.771C358.993 103.749 360.13 103.238 361.51 103.238ZM367.477 99.6055H369.234V104.957C369.651 104.43 370.025 104.059 370.357 103.844C370.924 103.473 371.63 103.287 372.477 103.287C373.993 103.287 375.022 103.818 375.562 104.879C375.855 105.458 376.002 106.262 376.002 107.291V114H374.195V107.408C374.195 106.64 374.098 106.077 373.902 105.719C373.583 105.146 372.984 104.859 372.105 104.859C371.376 104.859 370.715 105.11 370.123 105.611C369.531 106.113 369.234 107.06 369.234 108.453V114H367.477V99.6055ZM6.14844 126.541L8.94141 135.057L11.8613 126.541H13.7852L9.83984 137H7.96484L4.10742 126.541H6.14844ZM17.0469 126.541V133.484C17.0469 134.018 17.1315 134.454 17.3008 134.793C17.6133 135.418 18.196 135.73 19.0488 135.73C20.2728 135.73 21.1061 135.184 21.5488 134.09C21.7897 133.504 21.9102 132.7 21.9102 131.678V126.541H23.668V137H22.0078L22.0273 135.457C21.7995 135.854 21.5163 136.189 21.1777 136.463C20.5072 137.01 19.6934 137.283 18.7363 137.283C17.2454 137.283 16.2298 136.785 15.6895 135.789C15.3965 135.255 15.25 134.542 15.25 133.65V126.541H17.0469ZM18.4043 138.27H20.2305V140.301H18.4043V138.27ZM36.0215 126.238C37.1999 126.238 38.1569 126.525 38.8926 127.098C39.6348 127.671 40.0807 128.657 40.2305 130.057H38.5215C38.4173 129.412 38.1797 128.878 37.8086 128.455C37.4375 128.025 36.8418 127.811 36.0215 127.811C34.9017 127.811 34.1009 128.357 33.6191 129.451C33.3066 130.161 33.1504 131.036 33.1504 132.078C33.1504 133.126 33.3717 134.008 33.8145 134.725C34.2572 135.441 34.9538 135.799 35.9043 135.799C36.6335 135.799 37.2096 135.577 37.6328 135.135C38.0625 134.686 38.3587 134.074 38.5215 133.299H40.2305C40.0352 134.686 39.5469 135.701 38.7656 136.346C37.9844 136.984 36.985 137.303 35.7676 137.303C34.4004 137.303 33.3099 136.805 32.4961 135.809C31.6823 134.806 31.2754 133.556 31.2754 132.059C31.2754 130.223 31.7214 128.794 32.6133 127.771C33.5052 126.749 34.6413 126.238 36.0215 126.238ZM41.9883 122.605H43.7461V127.957C44.1628 127.43 44.5371 127.059 44.8691 126.844C45.4355 126.473 46.1419 126.287 46.9883 126.287C48.5052 126.287 49.5339 126.818 50.0742 127.879C50.3672 128.458 50.5137 129.262 50.5137 130.291V137H48.707V130.408C48.707 129.64 48.6094 129.077 48.4141 128.719C48.0951 128.146 47.4961 127.859 46.6172 127.859C45.888 127.859 45.2272 128.11 44.6348 128.611C44.0423 129.113 43.7461 130.06 43.7461 131.453V137H41.9883V122.605ZM57.2715 135.867C58.4368 135.867 59.2344 135.428 59.6641 134.549C60.1003 133.663 60.3184 132.68 60.3184 131.6C60.3184 130.623 60.1621 129.829 59.8496 129.217C59.3548 128.253 58.502 127.771 57.291 127.771C56.2168 127.771 55.4355 128.182 54.9473 129.002C54.459 129.822 54.2148 130.812 54.2148 131.971C54.2148 133.084 54.459 134.012 54.9473 134.754C55.4355 135.496 56.2103 135.867 57.2715 135.867ZM57.3398 126.238C58.6875 126.238 59.8268 126.688 60.7578 127.586C61.6888 128.484 62.1543 129.806 62.1543 131.551C62.1543 133.237 61.7441 134.63 60.9238 135.73C60.1035 136.831 58.8307 137.381 57.1055 137.381C55.6667 137.381 54.5241 136.896 53.6777 135.926C52.8314 134.949 52.4082 133.641 52.4082 132C52.4082 130.242 52.8542 128.842 53.7461 127.801C54.638 126.759 55.8359 126.238 57.3398 126.238ZM70.1719 123.621H71.9492V126.541H73.6191V127.977H71.9492V134.803C71.9492 135.167 72.0729 135.411 72.3203 135.535C72.457 135.607 72.6849 135.643 73.0039 135.643C73.0885 135.643 73.1797 135.643 73.2773 135.643C73.375 135.636 73.4889 135.626 73.6191 135.613V137C73.4173 137.059 73.2057 137.101 72.9844 137.127C72.7695 137.153 72.5352 137.166 72.2812 137.166C71.4609 137.166 70.9043 136.958 70.6113 136.541C70.3184 136.118 70.1719 135.571 70.1719 134.9V127.977H68.7559V126.541H70.1719V123.621ZM75.3867 122.605H77.1445V127.957C77.5612 127.43 77.9355 127.059 78.2676 126.844C78.834 126.473 79.5404 126.287 80.3867 126.287C81.9036 126.287 82.9323 126.818 83.4727 127.879C83.7656 128.458 83.9121 129.262 83.9121 130.291V137H82.1055V130.408C82.1055 129.64 82.0078 129.077 81.8125 128.719C81.4935 128.146 80.8945 127.859 80.0156 127.859C79.2865 127.859 78.6257 128.11 78.0332 128.611C77.4408 129.113 77.1445 130.06 77.1445 131.453V137H75.3867V122.605ZM88.2773 126.541V133.484C88.2773 134.018 88.362 134.454 88.5312 134.793C88.8438 135.418 89.4264 135.73 90.2793 135.73C91.5033 135.73 92.3366 135.184 92.7793 134.09C93.0202 133.504 93.1406 132.7 93.1406 131.678V126.541H94.8984V137H93.2383L93.2578 135.457C93.0299 135.854 92.7467 136.189 92.4082 136.463C91.7376 137.01 90.9238 137.283 89.9668 137.283C88.4759 137.283 87.4603 136.785 86.9199 135.789C86.627 135.255 86.4805 134.542 86.4805 133.65V126.541H88.2773ZM102.008 126.307C102.75 126.307 103.469 126.482 104.166 126.834C104.863 127.179 105.393 127.628 105.758 128.182C106.109 128.709 106.344 129.324 106.461 130.027C106.565 130.509 106.617 131.277 106.617 132.332H98.9512C98.9837 133.393 99.2344 134.246 99.7031 134.891C100.172 135.529 100.898 135.848 101.881 135.848C102.799 135.848 103.531 135.545 104.078 134.939C104.391 134.588 104.612 134.181 104.742 133.719H106.471C106.425 134.103 106.272 134.533 106.012 135.008C105.758 135.477 105.471 135.861 105.152 136.16C104.618 136.681 103.958 137.033 103.17 137.215C102.747 137.319 102.268 137.371 101.734 137.371C100.432 137.371 99.3288 136.899 98.4238 135.955C97.5189 135.005 97.0664 133.676 97.0664 131.971C97.0664 130.291 97.5221 128.927 98.4336 127.879C99.3451 126.831 100.536 126.307 102.008 126.307ZM104.811 130.936C104.739 130.174 104.573 129.565 104.312 129.109C103.831 128.263 103.027 127.84 101.9 127.84C101.093 127.84 100.416 128.133 99.8691 128.719C99.3223 129.298 99.0326 130.037 99 130.936H104.811ZM103.014 122.332L105.006 125.154H103.404L102.086 123.279L100.768 125.154H99.1758L101.158 122.332H103.014ZM119.977 128.719C120.797 128.719 121.435 128.605 121.891 128.377C122.607 128.019 122.965 127.374 122.965 126.443C122.965 125.506 122.584 124.874 121.822 124.549C121.393 124.367 120.755 124.275 119.908 124.275H116.441V128.719H119.977ZM120.631 135.34C121.822 135.34 122.672 134.995 123.18 134.305C123.499 133.868 123.658 133.341 123.658 132.723C123.658 131.681 123.193 130.971 122.262 130.594C121.767 130.392 121.113 130.291 120.299 130.291H116.441V135.34H120.631ZM114.537 122.654H120.699C122.379 122.654 123.574 123.156 124.283 124.158C124.7 124.751 124.908 125.434 124.908 126.209C124.908 127.114 124.651 127.856 124.137 128.436C123.87 128.742 123.486 129.021 122.984 129.275C123.72 129.555 124.27 129.871 124.635 130.223C125.279 130.848 125.602 131.71 125.602 132.811C125.602 133.735 125.312 134.572 124.732 135.32C123.867 136.44 122.49 137 120.602 137H114.537V122.654ZM131.842 135.867C133.007 135.867 133.805 135.428 134.234 134.549C134.671 133.663 134.889 132.68 134.889 131.6C134.889 130.623 134.732 129.829 134.42 129.217C133.925 128.253 133.072 127.771 131.861 127.771C130.787 127.771 130.006 128.182 129.518 129.002C129.029 129.822 128.785 130.812 128.785 131.971C128.785 133.084 129.029 134.012 129.518 134.754C130.006 135.496 130.781 135.867 131.842 135.867ZM131.91 126.238C133.258 126.238 134.397 126.688 135.328 127.586C136.259 128.484 136.725 129.806 136.725 131.551C136.725 133.237 136.314 134.63 135.494 135.73C134.674 136.831 133.401 137.381 131.676 137.381C130.237 137.381 129.094 136.896 128.248 135.926C127.402 134.949 126.979 133.641 126.979 132C126.979 130.242 127.424 128.842 128.316 127.801C129.208 126.759 130.406 126.238 131.91 126.238ZM140.172 134.217C140.172 134.725 140.357 135.125 140.729 135.418C141.1 135.711 141.539 135.857 142.047 135.857C142.665 135.857 143.264 135.714 143.844 135.428C144.82 134.952 145.309 134.174 145.309 133.094V131.678C145.094 131.814 144.817 131.928 144.479 132.02C144.14 132.111 143.808 132.176 143.482 132.215L142.418 132.352C141.78 132.436 141.301 132.57 140.982 132.752C140.442 133.058 140.172 133.546 140.172 134.217ZM144.43 130.662C144.833 130.61 145.104 130.441 145.24 130.154C145.318 129.998 145.357 129.773 145.357 129.48C145.357 128.882 145.143 128.449 144.713 128.182C144.29 127.908 143.681 127.771 142.887 127.771C141.969 127.771 141.318 128.019 140.934 128.514C140.719 128.787 140.579 129.194 140.514 129.734H138.873C138.906 128.445 139.322 127.55 140.123 127.049C140.93 126.541 141.865 126.287 142.926 126.287C144.156 126.287 145.156 126.521 145.924 126.99C146.686 127.459 147.066 128.188 147.066 129.178V135.203C147.066 135.385 147.102 135.532 147.174 135.643C147.252 135.753 147.411 135.809 147.652 135.809C147.73 135.809 147.818 135.805 147.916 135.799C148.014 135.786 148.118 135.77 148.229 135.75V137.049C147.955 137.127 147.747 137.176 147.604 137.195C147.46 137.215 147.265 137.225 147.018 137.225C146.412 137.225 145.973 137.01 145.699 136.58C145.556 136.352 145.455 136.03 145.396 135.613C145.038 136.082 144.524 136.489 143.854 136.834C143.183 137.179 142.444 137.352 141.637 137.352C140.667 137.352 139.872 137.059 139.254 136.473C138.642 135.88 138.336 135.141 138.336 134.256C138.336 133.286 138.639 132.534 139.244 132C139.85 131.466 140.644 131.137 141.627 131.014L144.43 130.662ZM150.006 126.541H151.676V128.348C151.812 127.996 152.148 127.57 152.682 127.068C153.215 126.561 153.831 126.307 154.527 126.307C154.56 126.307 154.615 126.31 154.693 126.316C154.771 126.323 154.905 126.336 155.094 126.355V128.211C154.99 128.191 154.892 128.178 154.801 128.172C154.716 128.165 154.622 128.162 154.518 128.162C153.632 128.162 152.952 128.449 152.477 129.021C152.001 129.588 151.764 130.242 151.764 130.984V137H150.006V126.541ZM157.73 131.893C157.73 133.012 157.968 133.95 158.443 134.705C158.919 135.46 159.68 135.838 160.729 135.838C161.542 135.838 162.21 135.49 162.73 134.793C163.258 134.09 163.521 133.084 163.521 131.775C163.521 130.454 163.251 129.477 162.711 128.846C162.171 128.208 161.503 127.889 160.709 127.889C159.824 127.889 159.104 128.227 158.551 128.904C158.004 129.581 157.73 130.577 157.73 131.893ZM160.377 126.355C161.178 126.355 161.848 126.525 162.389 126.863C162.701 127.059 163.056 127.4 163.453 127.889V122.605H165.143V137H163.561V135.545C163.15 136.189 162.665 136.655 162.105 136.941C161.546 137.228 160.904 137.371 160.182 137.371C159.016 137.371 158.007 136.883 157.154 135.906C156.301 134.923 155.875 133.618 155.875 131.99C155.875 130.467 156.262 129.148 157.037 128.035C157.818 126.915 158.932 126.355 160.377 126.355ZM179.752 122.283C181.1 122.283 182.265 122.544 183.248 123.064C184.674 123.813 185.546 125.125 185.865 127H183.941C183.707 125.952 183.222 125.19 182.486 124.715C181.751 124.233 180.823 123.992 179.703 123.992C178.375 123.992 177.255 124.49 176.344 125.486C175.439 126.482 174.986 127.967 174.986 129.939C174.986 131.645 175.361 133.035 176.109 134.109C176.858 135.177 178.079 135.711 179.771 135.711C181.067 135.711 182.138 135.337 182.984 134.588C183.837 133.833 184.273 132.615 184.293 130.936H179.801V129.324H186.1V137H184.85L184.381 135.154C183.723 135.877 183.141 136.378 182.633 136.658C181.78 137.14 180.696 137.381 179.381 137.381C177.682 137.381 176.22 136.831 174.996 135.73C173.661 134.35 172.994 132.456 172.994 130.047C172.994 127.645 173.645 125.734 174.947 124.314C176.184 122.96 177.786 122.283 179.752 122.283ZM190.23 134.217C190.23 134.725 190.416 135.125 190.787 135.418C191.158 135.711 191.598 135.857 192.105 135.857C192.724 135.857 193.323 135.714 193.902 135.428C194.879 134.952 195.367 134.174 195.367 133.094V131.678C195.152 131.814 194.876 131.928 194.537 132.02C194.199 132.111 193.867 132.176 193.541 132.215L192.477 132.352C191.839 132.436 191.36 132.57 191.041 132.752C190.501 133.058 190.23 133.546 190.23 134.217ZM194.488 130.662C194.892 130.61 195.162 130.441 195.299 130.154C195.377 129.998 195.416 129.773 195.416 129.48C195.416 128.882 195.201 128.449 194.771 128.182C194.348 127.908 193.74 127.771 192.945 127.771C192.027 127.771 191.376 128.019 190.992 128.514C190.777 128.787 190.637 129.194 190.572 129.734H188.932C188.964 128.445 189.381 127.55 190.182 127.049C190.989 126.541 191.923 126.287 192.984 126.287C194.215 126.287 195.214 126.521 195.982 126.99C196.744 127.459 197.125 128.188 197.125 129.178V135.203C197.125 135.385 197.161 135.532 197.232 135.643C197.311 135.753 197.47 135.809 197.711 135.809C197.789 135.809 197.877 135.805 197.975 135.799C198.072 135.786 198.176 135.77 198.287 135.75V137.049C198.014 137.127 197.805 137.176 197.662 137.195C197.519 137.215 197.324 137.225 197.076 137.225C196.471 137.225 196.031 137.01 195.758 136.58C195.615 136.352 195.514 136.03 195.455 135.613C195.097 136.082 194.583 136.489 193.912 136.834C193.242 137.179 192.503 137.352 191.695 137.352C190.725 137.352 189.931 137.059 189.312 136.473C188.701 135.88 188.395 135.141 188.395 134.256C188.395 133.286 188.697 132.534 189.303 132C189.908 131.466 190.702 131.137 191.686 131.014L194.488 130.662ZM200.016 126.541H201.754V128.025C202.171 127.511 202.548 127.137 202.887 126.902C203.466 126.505 204.124 126.307 204.859 126.307C205.693 126.307 206.363 126.512 206.871 126.922C207.158 127.156 207.418 127.501 207.652 127.957C208.043 127.397 208.502 126.984 209.029 126.717C209.557 126.443 210.149 126.307 210.807 126.307C212.213 126.307 213.17 126.814 213.678 127.83C213.951 128.377 214.088 129.113 214.088 130.037V137H212.262V129.734C212.262 129.038 212.086 128.559 211.734 128.299C211.389 128.038 210.966 127.908 210.465 127.908C209.775 127.908 209.179 128.139 208.678 128.602C208.183 129.064 207.936 129.835 207.936 130.916V137H206.148V130.174C206.148 129.464 206.064 128.947 205.895 128.621C205.628 128.133 205.13 127.889 204.4 127.889C203.736 127.889 203.131 128.146 202.584 128.66C202.044 129.174 201.773 130.105 201.773 131.453V137H200.016V126.541ZM221.031 126.307C221.773 126.307 222.493 126.482 223.189 126.834C223.886 127.179 224.417 127.628 224.781 128.182C225.133 128.709 225.367 129.324 225.484 130.027C225.589 130.509 225.641 131.277 225.641 132.332H217.975C218.007 133.393 218.258 134.246 218.727 134.891C219.195 135.529 219.921 135.848 220.904 135.848C221.822 135.848 222.555 135.545 223.102 134.939C223.414 134.588 223.635 134.181 223.766 133.719H225.494C225.449 134.103 225.296 134.533 225.035 135.008C224.781 135.477 224.495 135.861 224.176 136.16C223.642 136.681 222.981 137.033 222.193 137.215C221.77 137.319 221.292 137.371 220.758 137.371C219.456 137.371 218.352 136.899 217.447 135.955C216.542 135.005 216.09 133.676 216.09 131.971C216.09 130.291 216.546 128.927 217.457 127.879C218.368 126.831 219.56 126.307 221.031 126.307ZM223.834 130.936C223.762 130.174 223.596 129.565 223.336 129.109C222.854 128.263 222.05 127.84 220.924 127.84C220.117 127.84 219.439 128.133 218.893 128.719C218.346 129.298 218.056 130.037 218.023 130.936H223.834ZM235.133 126.541V133.484C235.133 134.018 235.217 134.454 235.387 134.793C235.699 135.418 236.282 135.73 237.135 135.73C238.359 135.73 239.192 135.184 239.635 134.09C239.876 133.504 239.996 132.7 239.996 131.678V126.541H241.754V137H240.094L240.113 135.457C239.885 135.854 239.602 136.189 239.264 136.463C238.593 137.01 237.779 137.283 236.822 137.283C235.331 137.283 234.316 136.785 233.775 135.789C233.482 135.255 233.336 134.542 233.336 133.65V126.541H235.133ZM251.041 126.541H252.984C252.737 127.212 252.187 128.742 251.334 131.131C250.696 132.928 250.162 134.393 249.732 135.525C248.717 138.195 248.001 139.822 247.584 140.408C247.167 140.994 246.451 141.287 245.436 141.287C245.188 141.287 244.996 141.277 244.859 141.258C244.729 141.238 244.566 141.202 244.371 141.15V139.549C244.677 139.633 244.898 139.686 245.035 139.705C245.172 139.725 245.292 139.734 245.396 139.734C245.722 139.734 245.96 139.679 246.109 139.568C246.266 139.464 246.396 139.334 246.5 139.178C246.533 139.126 246.65 138.859 246.852 138.377C247.053 137.895 247.2 137.537 247.291 137.303L243.424 126.541H245.416L248.219 135.057L251.041 126.541ZM260.426 123.621H262.203V126.541H263.873V127.977H262.203V134.803C262.203 135.167 262.327 135.411 262.574 135.535C262.711 135.607 262.939 135.643 263.258 135.643C263.342 135.643 263.434 135.643 263.531 135.643C263.629 135.636 263.743 135.626 263.873 135.613V137C263.671 137.059 263.46 137.101 263.238 137.127C263.023 137.153 262.789 137.166 262.535 137.166C261.715 137.166 261.158 136.958 260.865 136.541C260.572 136.118 260.426 135.571 260.426 134.9V127.977H259.01V126.541H260.426V123.621ZM266.197 126.59H267.984V137H266.197V126.59ZM269.312 122.332L266.705 125.154H265.357L267.145 122.332H269.312ZM271.207 126.541H272.877V128.025C273.372 127.413 273.896 126.974 274.449 126.707C275.003 126.44 275.618 126.307 276.295 126.307C277.779 126.307 278.782 126.824 279.303 127.859C279.589 128.426 279.732 129.236 279.732 130.291V137H277.945V130.408C277.945 129.77 277.851 129.256 277.662 128.865C277.35 128.214 276.783 127.889 275.963 127.889C275.546 127.889 275.204 127.931 274.938 128.016C274.456 128.159 274.033 128.445 273.668 128.875C273.375 129.22 273.183 129.578 273.092 129.949C273.007 130.314 272.965 130.838 272.965 131.521V137H271.207V126.541ZM282.711 139.041C283.16 138.963 283.476 138.647 283.658 138.094C283.756 137.801 283.805 137.518 283.805 137.244C283.805 137.199 283.801 137.156 283.795 137.117C283.795 137.085 283.788 137.046 283.775 137H282.711V134.871H284.801V136.844C284.801 137.618 284.645 138.299 284.332 138.885C284.02 139.471 283.479 139.832 282.711 139.969V139.041ZM297.506 126.238C298.684 126.238 299.641 126.525 300.377 127.098C301.119 127.671 301.565 128.657 301.715 130.057H300.006C299.902 129.412 299.664 128.878 299.293 128.455C298.922 128.025 298.326 127.811 297.506 127.811C296.386 127.811 295.585 128.357 295.104 129.451C294.791 130.161 294.635 131.036 294.635 132.078C294.635 133.126 294.856 134.008 295.299 134.725C295.742 135.441 296.438 135.799 297.389 135.799C298.118 135.799 298.694 135.577 299.117 135.135C299.547 134.686 299.843 134.074 300.006 133.299H301.715C301.52 134.686 301.031 135.701 300.25 136.346C299.469 136.984 298.469 137.303 297.252 137.303C295.885 137.303 294.794 136.805 293.98 135.809C293.167 134.806 292.76 133.556 292.76 132.059C292.76 130.223 293.206 128.794 294.098 127.771C294.99 126.749 296.126 126.238 297.506 126.238ZM303.473 122.605H305.23V127.957C305.647 127.43 306.021 127.059 306.354 126.844C306.92 126.473 307.626 126.287 308.473 126.287C309.99 126.287 311.018 126.818 311.559 127.879C311.852 128.458 311.998 129.262 311.998 130.291V137H310.191V130.408C310.191 129.64 310.094 129.077 309.898 128.719C309.579 128.146 308.98 127.859 308.102 127.859C307.372 127.859 306.712 128.11 306.119 128.611C305.527 129.113 305.23 130.06 305.23 131.453V137H303.473V122.605ZM315.953 134.217C315.953 134.725 316.139 135.125 316.51 135.418C316.881 135.711 317.32 135.857 317.828 135.857C318.447 135.857 319.046 135.714 319.625 135.428C320.602 134.952 321.09 134.174 321.09 133.094V131.678C320.875 131.814 320.598 131.928 320.26 132.02C319.921 132.111 319.589 132.176 319.264 132.215L318.199 132.352C317.561 132.436 317.083 132.57 316.764 132.752C316.223 133.058 315.953 133.546 315.953 134.217ZM320.211 130.662C320.615 130.61 320.885 130.441 321.021 130.154C321.1 129.998 321.139 129.773 321.139 129.48C321.139 128.882 320.924 128.449 320.494 128.182C320.071 127.908 319.462 127.771 318.668 127.771C317.75 127.771 317.099 128.019 316.715 128.514C316.5 128.787 316.36 129.194 316.295 129.734H314.654C314.687 128.445 315.104 127.55 315.904 127.049C316.712 126.541 317.646 126.287 318.707 126.287C319.938 126.287 320.937 126.521 321.705 126.99C322.467 127.459 322.848 128.188 322.848 129.178V135.203C322.848 135.385 322.883 135.532 322.955 135.643C323.033 135.753 323.193 135.809 323.434 135.809C323.512 135.809 323.6 135.805 323.697 135.799C323.795 135.786 323.899 135.77 324.01 135.75V137.049C323.736 137.127 323.528 137.176 323.385 137.195C323.242 137.215 323.046 137.225 322.799 137.225C322.193 137.225 321.754 137.01 321.48 136.58C321.337 136.352 321.236 136.03 321.178 135.613C320.82 136.082 320.305 136.489 319.635 136.834C318.964 137.179 318.225 137.352 317.418 137.352C316.448 137.352 315.654 137.059 315.035 136.473C314.423 135.88 314.117 135.141 314.117 134.256C314.117 133.286 314.42 132.534 315.025 132C315.631 131.466 316.425 131.137 317.408 131.014L320.211 130.662ZM319.742 122.703L321.734 125.525H320.133L318.814 123.65L317.496 125.525H315.904L317.887 122.703H319.742ZM323.941 120.711L321.334 123.533H319.986L321.773 120.711H323.941ZM326.09 123.621H327.867V126.541H329.537V127.977H327.867V134.803C327.867 135.167 327.991 135.411 328.238 135.535C328.375 135.607 328.603 135.643 328.922 135.643C329.007 135.643 329.098 135.643 329.195 135.643C329.293 135.636 329.407 135.626 329.537 135.613V137C329.335 137.059 329.124 137.101 328.902 137.127C328.688 137.153 328.453 137.166 328.199 137.166C327.379 137.166 326.822 136.958 326.529 136.541C326.236 136.118 326.09 135.571 326.09 134.9V127.977H324.674V126.541H326.09V123.621ZM336.92 122.654H338.678V137H336.92V122.654ZM343.082 126.541V133.484C343.082 134.018 343.167 134.454 343.336 134.793C343.648 135.418 344.231 135.73 345.084 135.73C346.308 135.73 347.141 135.184 347.584 134.09C347.825 133.504 347.945 132.7 347.945 131.678V126.541H349.703V128.055C349.833 128.061 349.977 128.048 350.133 128.016C350.445 127.996 350.729 127.934 350.982 127.83L351.09 127.781C351.122 127.762 351.155 127.736 351.188 127.703L350.787 126.727L352.75 125.906L353.551 127.84L351.725 128.592C351.028 128.885 350.354 129.018 349.703 128.992V137H348.043L348.062 135.457C347.835 135.854 347.551 136.189 347.213 136.463C346.542 137.01 345.729 137.283 344.771 137.283C343.281 137.283 342.265 136.785 341.725 135.789C341.432 135.255 341.285 134.542 341.285 133.65V126.541H343.082ZM364.322 131.551C364.322 133.237 363.912 134.63 363.092 135.73C362.271 136.831 360.999 137.381 359.273 137.381C357.835 137.381 356.692 136.896 355.846 135.926C354.999 134.949 354.576 133.641 354.576 132C354.576 130.242 355.022 128.842 355.914 127.801C356.806 126.759 358.004 126.238 359.508 126.238C360.855 126.238 361.995 126.688 362.926 127.586C363.076 127.729 363.212 127.885 363.336 128.055C363.434 128.055 363.541 128.042 363.658 128.016C363.971 127.996 364.254 127.934 364.508 127.83L364.615 127.781C364.648 127.762 364.68 127.736 364.713 127.703L364.312 126.727L366.275 125.906L367.076 127.84L365.25 128.592C364.775 128.794 364.312 128.921 363.863 128.973C364.169 129.695 364.322 130.555 364.322 131.551ZM362.486 131.6C362.486 130.623 362.33 129.829 362.018 129.217C361.523 128.253 360.67 127.771 359.459 127.771C358.385 127.771 357.604 128.182 357.115 129.002C356.627 129.822 356.383 130.812 356.383 131.971C356.383 133.084 356.627 134.012 357.115 134.754C357.604 135.496 358.378 135.867 359.439 135.867C360.605 135.867 361.402 135.428 361.832 134.549C362.268 133.663 362.486 132.68 362.486 131.6ZM358.443 138.27H360.27V140.301H358.443V138.27ZM368.805 126.541H370.475V128.025C370.969 127.413 371.493 126.974 372.047 126.707C372.6 126.44 373.215 126.307 373.893 126.307C375.377 126.307 376.38 126.824 376.9 127.859C377.187 128.426 377.33 129.236 377.33 130.291V137H375.543V130.408C375.543 129.77 375.449 129.256 375.26 128.865C374.947 128.214 374.381 127.889 373.561 127.889C373.144 127.889 372.802 127.931 372.535 128.016C372.053 128.159 371.63 128.445 371.266 128.875C370.973 129.22 370.781 129.578 370.689 129.949C370.605 130.314 370.562 130.838 370.562 131.521V137H368.805V126.541ZM383.629 126.355C384.449 126.355 385.165 126.557 385.777 126.961C386.109 127.189 386.448 127.521 386.793 127.957V126.639H388.414V136.15C388.414 137.479 388.219 138.527 387.828 139.295C387.099 140.714 385.722 141.424 383.697 141.424C382.571 141.424 381.624 141.17 380.855 140.662C380.087 140.161 379.658 139.373 379.566 138.299H381.354C381.438 138.768 381.607 139.129 381.861 139.383C382.258 139.773 382.883 139.969 383.736 139.969C385.084 139.969 385.966 139.493 386.383 138.543C386.63 137.983 386.744 136.984 386.725 135.545C386.373 136.079 385.95 136.476 385.455 136.736C384.96 136.997 384.306 137.127 383.492 137.127C382.359 137.127 381.367 136.727 380.514 135.926C379.667 135.118 379.244 133.787 379.244 131.932C379.244 130.18 379.671 128.813 380.523 127.83C381.383 126.847 382.418 126.355 383.629 126.355ZM386.793 131.727C386.793 130.431 386.526 129.471 385.992 128.846C385.458 128.221 384.778 127.908 383.951 127.908C382.714 127.908 381.868 128.488 381.412 129.646C381.171 130.265 381.051 131.076 381.051 132.078C381.051 133.257 381.288 134.155 381.764 134.773C382.245 135.385 382.89 135.691 383.697 135.691C384.96 135.691 385.849 135.122 386.363 133.982C386.65 133.338 386.793 132.586 386.793 131.727ZM391.49 134.871H393.531V137H391.49V134.871Z" fill="black"/>
<g filter="url(#filter1_i_684_3016)">
<path d="M80 193C80 181.954 88.9543 173 100 173H230C241.046 173 250 181.954 250 193V203C250 214.046 241.046 223 230 223H100C88.9543 223 80 214.046 80 203V193Z" fill="#002144"/>
<path d="M80 193C80 181.954 88.9543 173 100 173H230C241.046 173 250 181.954 250 193V203C250 214.046 241.046 223 230 223H100C88.9543 223 80 214.046 80 203V193Z" fill="#002144"/>
</g>
<path d="M100 223H230C241.046 223 250 214.046 250 203V193C250 181.954 241.046 173 230 173H100C88.9543 173 80 181.954 80 193V203C80 214.046 88.9543 223 100 223Z" stroke="black"/>
<g filter="url(#filter2_df_684_3016)">
<path d="M85 196C85 184.954 93.9543 176 105 176H225C236.046 176 245 184.954 245 196V201C245 212.046 236.046 221 225 221H105C93.9543 221 85 212.046 85 201V196Z" fill="#053E7A"/>
<path d="M85 196C85 184.954 93.9543 176 105 176H225C236.046 176 245 184.954 245 196V201C245 212.046 236.046 221 225 221H105C93.9543 221 85 212.046 85 201V196Z" fill="#053E7A"/>
</g>
<path d="M229.696 204.66V189.652C229.696 188.16 228.486 187.053 227.017 187.178H226.943C224.35 187.401 220.411 188.732 218.213 190.125L218.003 190.261C217.645 190.485 217.052 190.485 216.694 190.261L216.385 190.075C214.187 188.695 210.26 187.377 207.667 187.165C206.198 187.041 205 188.16 205 189.64V204.66C205 205.854 205.963 206.973 207.149 207.122L207.507 207.172C210.186 207.532 214.323 208.9 216.694 210.206L216.743 210.231C217.077 210.417 217.607 210.417 217.929 210.231C220.299 208.913 224.448 207.532 227.14 207.172L227.548 207.122C228.733 206.973 229.696 205.854 229.696 204.66Z" stroke="white" stroke-width="3.38953" stroke-linecap="round" stroke-linejoin="round"/>
<path d="M217.348 190.672V209.323" stroke="white" stroke-width="3.38953" stroke-linecap="round" stroke-linejoin="round"/>
<path d="M212.1 194.402H209.322" stroke="white" stroke-width="3.38953" stroke-linecap="round" stroke-linejoin="round"/>
<path d="M213.026 198.132H209.322" stroke="white" stroke-width="3.38953" stroke-linecap="round" stroke-linejoin="round"/>
<path d="M110.781 204H107.314L105.479 200.807L103.633 204H100.254L103.887 198.609L100.41 193.375H103.818L105.596 196.461L107.334 193.375H110.645L107.148 198.561L110.781 204ZM121.543 200.875C121.471 201.507 121.143 202.148 120.557 202.799C119.645 203.834 118.369 204.352 116.729 204.352C115.374 204.352 114.18 203.915 113.145 203.043C112.109 202.171 111.592 200.751 111.592 198.785C111.592 196.943 112.057 195.53 112.988 194.547C113.926 193.564 115.14 193.072 116.631 193.072C117.516 193.072 118.314 193.238 119.023 193.57C119.733 193.902 120.319 194.426 120.781 195.143C121.198 195.774 121.468 196.507 121.592 197.34C121.663 197.828 121.693 198.531 121.68 199.449H114.395C114.434 200.517 114.769 201.266 115.4 201.695C115.785 201.962 116.247 202.096 116.787 202.096C117.36 202.096 117.826 201.933 118.184 201.607C118.379 201.432 118.551 201.188 118.701 200.875H121.543ZM118.789 197.613C118.743 196.878 118.519 196.321 118.115 195.943C117.718 195.559 117.223 195.367 116.631 195.367C115.986 195.367 115.485 195.569 115.127 195.973C114.775 196.376 114.554 196.923 114.463 197.613H118.789ZM129.541 196.285C129.307 195.771 128.848 195.514 128.164 195.514C127.37 195.514 126.836 195.771 126.562 196.285C126.413 196.578 126.338 197.014 126.338 197.594V204H123.516V193.375H126.221V194.928C126.566 194.374 126.891 193.98 127.197 193.746C127.738 193.329 128.438 193.121 129.297 193.121C130.111 193.121 130.768 193.3 131.27 193.658C131.673 193.99 131.979 194.417 132.188 194.938C132.552 194.312 133.005 193.854 133.545 193.561C134.118 193.268 134.756 193.121 135.459 193.121C135.928 193.121 136.39 193.212 136.846 193.395C137.301 193.577 137.715 193.896 138.086 194.352C138.385 194.723 138.587 195.178 138.691 195.719C138.757 196.077 138.789 196.601 138.789 197.291L138.77 204H135.918V197.223C135.918 196.819 135.853 196.487 135.723 196.227C135.475 195.732 135.02 195.484 134.355 195.484C133.587 195.484 133.057 195.803 132.764 196.441C132.614 196.78 132.539 197.187 132.539 197.662V204H129.736V197.662C129.736 197.031 129.671 196.572 129.541 196.285ZM151.797 202.018V204.098L150.479 204.146C149.163 204.192 148.265 203.964 147.783 203.463C147.471 203.144 147.314 202.652 147.314 201.988V195.436H145.83V193.453H147.314V190.484H150.068V193.453H151.797V195.436H150.068V201.061C150.068 201.497 150.124 201.77 150.234 201.881C150.345 201.985 150.684 202.037 151.25 202.037C151.335 202.037 151.423 202.037 151.514 202.037C151.611 202.031 151.706 202.024 151.797 202.018ZM163.203 197.75V204H160.361V197.525C160.361 196.952 160.264 196.49 160.068 196.139C159.814 195.644 159.333 195.396 158.623 195.396C157.887 195.396 157.327 195.644 156.943 196.139C156.566 196.627 156.377 197.327 156.377 198.238V204H153.604V189.654H156.377V194.742C156.781 194.124 157.246 193.694 157.773 193.453C158.307 193.206 158.867 193.082 159.453 193.082C160.111 193.082 160.706 193.196 161.24 193.424C161.781 193.652 162.223 194 162.568 194.469C162.861 194.866 163.04 195.276 163.105 195.699C163.171 196.116 163.203 196.799 163.203 197.75ZM174.922 200.875C174.85 201.507 174.521 202.148 173.936 202.799C173.024 203.834 171.748 204.352 170.107 204.352C168.753 204.352 167.559 203.915 166.523 203.043C165.488 202.171 164.971 200.751 164.971 198.785C164.971 196.943 165.436 195.53 166.367 194.547C167.305 193.564 168.519 193.072 170.01 193.072C170.895 193.072 171.693 193.238 172.402 193.57C173.112 193.902 173.698 194.426 174.16 195.143C174.577 195.774 174.847 196.507 174.971 197.34C175.042 197.828 175.072 198.531 175.059 199.449H167.773C167.812 200.517 168.148 201.266 168.779 201.695C169.163 201.962 169.626 202.096 170.166 202.096C170.739 202.096 171.204 201.933 171.562 201.607C171.758 201.432 171.93 201.188 172.08 200.875H174.922ZM172.168 197.613C172.122 196.878 171.898 196.321 171.494 195.943C171.097 195.559 170.602 195.367 170.01 195.367C169.365 195.367 168.864 195.569 168.506 195.973C168.154 196.376 167.933 196.923 167.842 197.613H172.168ZM168.955 189H171.455L173.74 191.92H171.475L170.205 190.279L168.926 191.92H166.66L168.955 189ZM182.92 196.285C182.686 195.771 182.227 195.514 181.543 195.514C180.749 195.514 180.215 195.771 179.941 196.285C179.792 196.578 179.717 197.014 179.717 197.594V204H176.895V193.375H179.6V194.928C179.945 194.374 180.27 193.98 180.576 193.746C181.117 193.329 181.816 193.121 182.676 193.121C183.49 193.121 184.147 193.3 184.648 193.658C185.052 193.99 185.358 194.417 185.566 194.938C185.931 194.312 186.383 193.854 186.924 193.561C187.497 193.268 188.135 193.121 188.838 193.121C189.307 193.121 189.769 193.212 190.225 193.395C190.68 193.577 191.094 193.896 191.465 194.352C191.764 194.723 191.966 195.178 192.07 195.719C192.135 196.077 192.168 196.601 192.168 197.291L192.148 204H189.297V197.223C189.297 196.819 189.232 196.487 189.102 196.227C188.854 195.732 188.398 195.484 187.734 195.484C186.966 195.484 186.436 195.803 186.143 196.441C185.993 196.78 185.918 197.187 185.918 197.662V204H183.115V197.662C183.115 197.031 183.05 196.572 182.92 196.285Z" fill="white"/>
<defs>
<filter id="filter0_d_684_3016" x="0.580078" y="3.04688" width="367.473" height="79.6387" filterUnits="userSpaceOnUse" color-interpolation-filters="sRGB">
<feFlood flood-opacity="0" result="BackgroundImageFix"/>
<feColorMatrix in="SourceAlpha" type="matrix" values="0 0 0 0 0 0 0 0 0 0 0 0 0 0 0 0 0 0 127 0" result="hardAlpha"/>
<feOffset dy="4"/>
<feGaussianBlur stdDeviation="2"/>
<feComposite in2="hardAlpha" operator="out"/>
<feColorMatrix type="matrix" values="0 0 0 0 0 0 0 0 0 0 0 0 0 0 0 0 0 0 0.25 0"/>
<feBlend mode="normal" in2="BackgroundImageFix" result="effect1_dropShadow_684_3016"/>
<feBlend mode="normal" in="SourceGraphic" in2="effect1_dropShadow_684_3016" result="shape"/>
</filter>
<filter id="filter1_i_684_3016" x="80" y="173" width="170" height="54" filterUnits="userSpaceOnUse" color-interpolation-filters="sRGB">
<feFlood flood-opacity="0" result="BackgroundImageFix"/>
<feBlend mode="normal" in="SourceGraphic" in2="BackgroundImageFix" result="shape"/>
<feColorMatrix in="SourceAlpha" type="matrix" values="0 0 0 0 0 0 0 0 0 0 0 0 0 0 0 0 0 0 127 0" result="hardAlpha"/>
<feOffset dy="4"/>
<feGaussianBlur stdDeviation="2"/>
<feComposite in2="hardAlpha" operator="arithmetic" k2="-1" k3="1"/>
<feColorMatrix type="matrix" values="0 0 0 0 0 0 0 0 0 0 0 0 0 0 0 0 0 0 0.25 0"/>
<feBlend mode="normal" in2="shape" result="effect1_innerShadow_684_3016"/>
</filter>
<filter id="filter2_df_684_3016" x="75" y="166" width="180" height="65" filterUnits="userSpaceOnUse" color-interpolation-filters="sRGB">
<feFlood flood-opacity="0" result="BackgroundImageFix"/>
<feColorMatrix in="SourceAlpha" type="matrix" values="0 0 0 0 0 0 0 0 0 0 0 0 0 0 0 0 0 0 127 0" result="hardAlpha"/>
<feOffset/>
<feComposite in2="hardAlpha" operator="out"/>
<feColorMatrix type="matrix" values="0 0 0 0 0 0 0 0 0 0 0 0 0 0 0 0 0 0 0.25 0"/>
<feBlend mode="normal" in2="BackgroundImageFix" result="effect1_dropShadow_684_3016"/>
<feBlend mode="normal" in="SourceGraphic" in2="effect1_dropShadow_684_3016" result="shape"/>
<feGaussianBlur stdDeviation="5" result="effect2_foregroundBlur_684_3016"/>
</filter>
</defs>
</svg>
