<svg width="14" height="15" viewBox="0 0 14 15" fill="none" xmlns="http://www.w3.org/2000/svg">
<path fill-rule="evenodd" clip-rule="evenodd" d="M2.21055 14.8235C1.62428 14.8235 1.06201 14.5893 0.647456 14.1723C0.232897 13.7553 0 13.1897 0 12.6L0 2.22352C0 1.6338 0.232897 1.06824 0.647456 0.651244C1.06201 0.234251 1.62428 -1.28746e-05 2.21055 -1.28746e-05H6.63165C7.21793 -1.28746e-05 7.78019 0.234251 8.19475 0.651244C8.60931 1.06824 8.8422 1.6338 8.8422 2.22352L8.8422 12.6C8.8422 13.1897 8.60931 13.7553 8.19475 14.1723C7.78019 14.5893 7.21793 14.8235 6.63165 14.8235H2.21055ZM9.79495 10.9005C9.93313 11.0394 10.1205 11.1175 10.3159 11.1175C10.5113 11.1175 10.6987 11.0394 10.8369 10.9005L13.7843 7.93576C13.9224 7.79677 14 7.60829 14 7.41175C14 7.21522 13.9224 7.02673 13.7843 6.88774L10.8369 3.92303C10.6979 3.78802 10.5118 3.71332 10.3186 3.715C10.1254 3.71669 9.94055 3.79464 9.80393 3.93206C9.66731 4.06948 9.58982 4.25538 9.58814 4.44971C9.58646 4.64405 9.66073 4.83127 9.79495 4.97106L11.4846 6.67058L5.15795 6.67058C4.96253 6.67058 4.77511 6.74866 4.63692 6.88766C4.49873 7.02666 4.4211 7.21518 4.4211 7.41175C4.4211 7.60832 4.49873 7.79685 4.63692 7.93584C4.77511 8.07484 4.96253 8.15293 5.15795 8.15293L11.4846 8.15293L9.79495 9.85245C9.65681 9.99144 9.57921 10.1799 9.57921 10.3765C9.57921 10.573 9.65681 10.7615 9.79495 10.9005V10.9005Z" fill="#002144"/>
</svg>
