<svg width="23" height="23" viewBox="0 0 23 23" fill="none" xmlns="http://www.w3.org/2000/svg">
<path opacity="0.4" d="M16.1 0H6.9C2.3 0 0 2.3 0 6.9V21.85C0 22.4825 0.5175 23 1.15 23H16.1C20.7 23 23 20.7 23 16.1V6.9C23 2.3 20.7 0 16.1 0Z" fill="#292D32" fill-opacity="0.7"/>
<path d="M18.4375 9.29C16.705 6.5675 14.17 5 11.5 5C10.165 5 8.8675 5.39 7.6825 6.1175C6.4975 6.8525 5.4325 7.925 4.5625 9.29C3.8125 10.4675 3.8125 12.38 4.5625 13.5575C6.295 16.2875 8.83 17.8475 11.5 17.8475C12.835 17.8475 14.1325 17.4575 15.3175 16.73C16.5025 15.995 17.5675 14.9225 18.4375 13.5575C19.1875 12.3875 19.1875 10.4675 18.4375 9.29ZM11.5 14.4575C9.82 14.4575 8.47 13.1 8.47 11.4275C8.47 9.755 9.82 8.3975 11.5 8.3975C13.18 8.3975 14.53 9.755 14.53 11.4275C14.53 13.1 13.18 14.4575 11.5 14.4575Z" fill="#292D32"/>
<path d="M11.4987 9.2832C10.3212 9.2832 9.36121 10.2432 9.36121 11.4282C9.36121 12.6057 10.3212 13.5657 11.4987 13.5657C12.6762 13.5657 13.6437 12.6057 13.6437 11.4282C13.6437 10.2507 12.6762 9.2832 11.4987 9.2832Z" fill="#292D32"/>
</svg>
