<svg width="23" height="23" viewBox="0 0 23 23" fill="none" xmlns="http://www.w3.org/2000/svg">
<path opacity="0.4" d="M16.1 0H6.9C2.3 0 0 2.3 0 6.9V21.85C0 22.4825 0.5175 23 1.15 23H16.1C20.7 23 23 20.7 23 16.1V6.9C23 2.3 20.7 0 16.1 0Z" fill="#292D32" fill-opacity="0.7"/>
<path d="M16.7341 6.27922C15.2851 4.83022 13.8821 4.79572 12.3986 6.27922L11.4901 7.18772C11.4096 7.26822 11.3866 7.38322 11.4096 7.48672C11.9731 9.46473 13.5486 11.0402 15.5266 11.6037C15.5496 11.6152 15.5841 11.6152 15.6186 11.6152C15.6991 11.6152 15.7796 11.5807 15.8371 11.5232L16.7341 10.6262C17.4701 9.89023 17.8266 9.18872 17.8266 8.47572C17.8266 7.72822 17.4701 7.01522 16.7341 6.27922Z" fill="#292D32"/>
<path d="M14.1915 12.2706C13.973 12.1671 13.766 12.0636 13.5705 11.9371C13.4095 11.8451 13.2485 11.7416 13.099 11.6266C12.9725 11.5461 12.823 11.4311 12.6735 11.3046C12.6505 11.2931 12.6045 11.2586 12.547 11.1896C12.3055 10.9826 12.0295 10.7066 11.7765 10.4191C11.7535 10.4076 11.719 10.3501 11.673 10.2811C11.5925 10.1891 11.4775 10.0396 11.3625 9.87861C11.2705 9.76361 11.167 9.60261 11.075 9.44161C10.96 9.24611 10.845 9.03914 10.753 8.83214C10.6495 8.60214 10.569 8.39514 10.4885 8.18814L6.15301 12.5236C5.86551 12.8111 5.60101 13.3401 5.54351 13.7311L5.20999 16.1231C5.12949 16.6291 5.27898 17.1006 5.58948 17.4226C5.85398 17.6871 6.22201 17.8251 6.62451 17.8251C6.71651 17.8251 6.79698 17.8136 6.88898 17.8021L9.28096 17.4686C9.67196 17.4111 10.201 17.1466 10.4885 16.8591L14.824 12.5236C14.617 12.4431 14.41 12.3626 14.1915 12.2706Z" fill="#292D32"/>
</svg>
