<svg width="24" height="24" viewBox="0 0 24 24" fill="none" xmlns="http://www.w3.org/2000/svg">
<path fill-rule="evenodd" clip-rule="evenodd" d="M17.0136 22H8.66579C5.59943 22 3.24703 20.8924 3.91522 16.4348L4.69325 10.3936C5.10515 8.16934 6.52392 7.31808 7.76877 7.31808H17.9473C19.2104 7.31808 20.5468 8.23341 21.0228 10.3936L21.8008 16.4348C22.3683 20.389 20.08 22 17.0136 22Z" stroke="white" stroke-width="1.5" stroke-linecap="round" stroke-linejoin="round"/>
<path d="M17.151 7.0984C17.151 4.71232 15.2167 2.77803 12.8306 2.77803V2.77803C11.6816 2.77316 10.578 3.22619 9.76381 4.03695C8.94963 4.8477 8.49193 5.94939 8.49194 7.0984V7.0984" stroke="white" stroke-width="1.5" stroke-linecap="round" stroke-linejoin="round"/>
<path d="M15.7962 11.6018H15.7505" stroke="white" stroke-width="1.5" stroke-linecap="round" stroke-linejoin="round"/>
<path d="M9.96566 11.6018H9.91989" stroke="white" stroke-width="1.5" stroke-linecap="round" stroke-linejoin="round"/>
</svg>
