<svg xmlns="http://www.w3.org/2000/svg" width="24" height="24" viewBox="0 0 24 24" fill="none">
  <path d="M21.6799 0H18.32C17.3257 0 16.5943 0.411423 16.2629 1.14284C16.08 1.47427 16 1.86283 16 2.31997V5.67993C16 7.13134 16.8686 7.9999 18.32 7.9999H21.6799C22.1371 7.9999 22.5256 7.9199 22.8571 7.73704C23.5885 7.40562 23.9999 6.6742 23.9999 5.67993V2.31997C23.9999 0.86856 23.1313 0 21.6799 0ZM22.7542 4.49137C22.6399 4.60565 22.4685 4.68565 22.2856 4.69708H20.6742V5.27993L20.6857 6.28563C20.6742 6.47992 20.6057 6.63991 20.4685 6.77705C20.3542 6.89134 20.1828 6.97134 19.9999 6.97134C19.6228 6.97134 19.3142 6.66277 19.3142 6.28563V4.68565L17.7143 4.69708C17.3371 4.69708 17.0286 4.37709 17.0286 3.99995C17.0286 3.62281 17.3371 3.31424 17.7143 3.31424L18.72 3.32567H19.3142V1.72569C19.3142 1.34855 19.6228 1.02856 19.9999 1.02856C20.3771 1.02856 20.6857 1.34855 20.6857 1.72569L20.6742 2.53711V3.31424H22.2856C22.6628 3.31424 22.9713 3.62281 22.9713 3.99995C22.9599 4.19423 22.8799 4.35423 22.7542 4.49137Z" fill="#002144"/>
  <path d="M8.00121 10.7211C9.50338 10.7211 10.7212 9.50334 10.7212 8.00114C10.7212 6.49896 9.50338 5.28118 8.00121 5.28118C6.49903 5.28118 5.28125 6.49896 5.28125 8.00114C5.28125 9.50334 6.49903 10.7211 8.00121 10.7211Z" fill="#002144"/>
  <path d="M21.6797 7.9999H21.1426V13.2684L20.994 13.1427C20.1026 12.377 18.6626 12.377 17.7712 13.1427L13.017 17.2226C12.1256 17.9883 10.6856 17.9883 9.79416 17.2226L9.40559 16.9026C8.59417 16.1941 7.30276 16.1255 6.38849 16.7426L2.11426 19.6112C1.86283 18.9712 1.71426 18.2283 1.71426 17.3598V7.78276C1.71426 4.55994 3.4171 2.85711 6.63991 2.85711H15.9998V2.31997C15.9998 1.86284 16.0798 1.47427 16.2626 1.14285H6.63991C2.47997 1.14285 0 3.62281 0 7.78276V17.3598C0 18.6055 0.21714 19.6912 0.639992 20.6055C1.62284 22.7769 3.72567 23.9997 6.63991 23.9997H16.2169C20.3769 23.9997 22.8568 21.5197 22.8568 17.3598V7.73705C22.5254 7.9199 22.1369 7.9999 21.6797 7.9999Z" fill="#002144"/>
</svg>