<svg xmlns="http://www.w3.org/2000/svg" width="10" height="13" viewBox="0 0 10 13" fill="none">
  <path d="M9.99992 1.35591V2.70764C9.99992 3.19917 9.70923 3.81359 9.41854 4.1208L6.91862 6.45562C6.56979 6.76283 6.33724 7.37725 6.33724 7.86879V10.5108C6.33724 10.8794 6.10469 11.371 5.814 11.5553L5.00007 12.1083C4.24428 12.5998 3.19777 12.0468 3.19777 11.0638V7.80734C3.19777 7.37725 2.96522 6.82427 2.73267 6.51706L2.45942 6.216C2.2792 6.01324 2.24431 5.70603 2.38966 5.46641L5.36634 0.415852C5.47099 0.237671 5.65703 0.127075 5.86051 0.127075H8.83717C9.47668 0.127075 9.99992 0.680053 9.99992 1.35591Z" fill="white"/>
  <path d="M4.04058 1.06714L1.97669 4.56318C1.77902 4.90111 1.32554 4.95027 1.06392 4.66149L0.52324 4.05936C0.232551 3.75215 0 3.19917 0 2.83052V1.41736C0 0.680053 0.52324 0.127075 1.16276 0.127075H3.54641C3.99989 0.127075 4.27895 0.655476 4.04058 1.06714Z" fill="white"/>
</svg>