<svg width="16" height="18" viewBox="0 0 16 18" fill="none" xmlns="http://www.w3.org/2000/svg">
<path d="M6.9372 0.347977C3.11183 0.347977 0 3.68516 0 7.78756C0 11.89 3.11183 15.2271 6.9372 15.2271C8.10661 15.2271 9.2562 14.9296 10.2274 14.3556C10.3052 14.456 10.3915 14.5485 10.4851 14.632L12.4671 16.7576C12.6501 16.9784 12.8733 17.1568 13.123 17.2818C13.3726 17.4068 13.6434 17.4758 13.9188 17.4845C14.1942 17.4932 14.4683 17.4414 14.7244 17.3324C14.9805 17.2233 15.213 17.0593 15.4079 16.8504C15.6027 16.6415 15.7556 16.3921 15.8573 16.1175C15.959 15.8429 16.0072 15.5489 15.9991 15.2535C15.991 14.9582 15.9267 14.6678 15.8101 14.4C15.6936 14.1323 15.5272 13.893 15.3213 13.6967L13.3392 11.5711C13.2427 11.4675 13.1364 11.3749 13.0221 11.2948C13.5573 10.2532 13.8942 9.04166 13.8942 7.7663C13.8942 3.6639 10.7824 0.326721 6.95702 0.326721L6.9372 0.347977ZM6.9372 2.47357C9.69225 2.47357 11.8923 4.83298 11.8923 7.78756C11.8923 9.19045 11.4166 10.4871 10.5842 11.4436C10.5644 11.4648 10.5445 11.4861 10.5247 11.5073C10.4311 11.5908 10.3448 11.6833 10.267 11.7837C9.39495 12.6339 8.20571 13.1228 6.91738 13.1228C4.16232 13.1228 1.96224 10.7634 1.96224 7.80881C1.96224 4.85424 4.16232 2.49483 6.91738 2.49483L6.9372 2.47357Z" fill="black" fill-opacity="0.7"/>
</svg>
