<svg xmlns="http://www.w3.org/2000/svg" width="42" height="42" viewBox="0 0 42 42" fill="none">
  <path d="M42 29.799C42 37.443 37.443 42 29.799 42H27.3C26.145 42 25.2 41.055 25.2 39.9V27.783C25.2 27.216 25.662 26.733 26.229 26.733L29.925 26.67C30.219 26.649 30.471 26.439 30.534 26.145L31.269 22.134C31.332 21.756 31.038 21.399 30.639 21.399L26.166 21.462C25.578 21.462 25.116 21 25.095 20.433L25.011 15.288C25.011 14.952 25.284 14.658 25.641 14.658L30.681 14.574C31.038 14.574 31.311 14.301 31.311 13.944L31.227 8.90398C31.227 8.54698 30.954 8.274 30.597 8.274L24.927 8.35802C21.441 8.42102 18.669 11.277 18.732 14.763L18.837 20.538C18.858 21.126 18.396 21.588 17.808 21.609L15.288 21.651C14.931 21.651 14.658 21.924 14.658 22.281L14.721 26.271C14.721 26.628 14.994 26.901 15.351 26.901L17.871 26.859C18.459 26.859 18.921 27.321 18.942 27.888L19.131 39.858C19.152 41.034 18.207 42 17.031 42H12.201C4.557 42 0 37.443 0 29.778V12.201C0 4.557 4.557 0 12.201 0H29.799C37.443 0 42 4.557 42 12.201V29.799Z" fill="white"/>
</svg>