<svg xmlns="http://www.w3.org/2000/svg" width="42" height="42" viewBox="0 0 42 42" fill="none">
  <path d="M29.799 0H12.201C4.557 0 0 4.557 0 12.201V29.778C0 37.443 4.557 42 12.201 42H29.778C37.422 42 41.979 37.443 41.979 29.799V12.201C42 4.557 37.443 0 29.799 0ZM21 29.148C16.506 29.148 12.852 25.494 12.852 21C12.852 16.506 16.506 12.852 21 12.852C25.494 12.852 29.148 16.506 29.148 21C29.148 25.494 25.494 29.148 21 29.148ZM33.432 10.248C33.327 10.5 33.18 10.731 32.991 10.941C32.781 11.13 32.55 11.277 32.298 11.382C32.046 11.487 31.773 11.55 31.5 11.55C30.933 11.55 30.408 11.34 30.009 10.941C29.82 10.731 29.673 10.5 29.568 10.248C29.463 9.996 29.4 9.723 29.4 9.45C29.4 9.177 29.463 8.904 29.568 8.652C29.673 8.379 29.82 8.169 30.009 7.959C30.492 7.476 31.227 7.245 31.899 7.392C32.046 7.413 32.172 7.455 32.298 7.518C32.424 7.56 32.55 7.623 32.676 7.707C32.781 7.77 32.886 7.875 32.991 7.959C33.18 8.169 33.327 8.379 33.432 8.652C33.537 8.904 33.6 9.177 33.6 9.45C33.6 9.723 33.537 9.996 33.432 10.248Z" fill="white"/>
</svg>