<svg width="23" height="23" viewBox="0 0 23 23" fill="none" xmlns="http://www.w3.org/2000/svg">
<path opacity="0.4" d="M16.1 0H6.9C2.3 0 0 2.3 0 6.9V21.85C0 22.4825 0.5175 23 1.15 23H16.1C20.7 23 23 20.7 23 16.1V6.9C23 2.3 20.7 0 16.1 0Z" fill="#292D32" fill-opacity="0.7"/>
<path d="M19.3534 6.18245C18.0908 6.05696 16.8281 5.96285 15.5576 5.89227V5.88443L15.3851 4.86489C15.2674 4.14337 15.0949 3.06109 13.2597 3.06109H11.205C9.37761 3.06109 9.20508 4.09631 9.07959 4.85704L8.9149 5.8609C8.18554 5.90795 7.45618 5.95501 6.72681 6.02559L5.12692 6.18245C4.79753 6.21382 4.56225 6.50399 4.59362 6.82554C4.62499 7.14709 4.90733 7.38236 5.23672 7.35099L6.83661 7.19414C10.9462 6.78633 15.0871 6.94318 19.2436 7.35884H19.3064C19.6044 7.35884 19.8632 7.1314 19.8946 6.82554C19.9181 6.50399 19.6828 6.21382 19.3534 6.18245Z" fill="#292D32"/>
<path d="M17.9113 8.46457C17.7231 8.2685 17.4643 8.15871 17.1977 8.15871H7.28464C7.01799 8.15871 6.75134 8.2685 6.57096 8.46457C6.39058 8.66063 6.28863 8.92728 6.30431 9.20177L6.79056 17.2483C6.87682 18.4404 6.98662 19.9305 9.72369 19.9305H14.7586C17.4957 19.9305 17.6055 18.4482 17.6917 17.2483L18.178 9.20962C18.1937 8.92728 18.0917 8.66063 17.9113 8.46457ZM13.543 16.0013H10.9314C10.6099 16.0013 10.3433 15.7347 10.3433 15.4131C10.3433 15.0916 10.6099 14.8249 10.9314 14.8249H13.543C13.8645 14.8249 14.1312 15.0916 14.1312 15.4131C14.1312 15.7347 13.8645 16.0013 13.543 16.0013ZM14.2018 12.8643H10.2805C9.95897 12.8643 9.69232 12.5976 9.69232 12.2761C9.69232 11.9545 9.95897 11.6879 10.2805 11.6879H14.2018C14.5233 11.6879 14.79 11.9545 14.79 12.2761C14.79 12.5976 14.5233 12.8643 14.2018 12.8643Z" fill="#292D32"/>
</svg>
