<svg width="21" height="21" viewBox="0 0 21 21" fill="none" xmlns="http://www.w3.org/2000/svg">
<path d="M20.7222 17.9168H16.2778C16.1259 17.9168 16 17.7935 16 17.6448C16 17.4961 16.1259 17.3727 16.2778 17.3727H20.7222C20.8741 17.3727 21 17.4961 21 17.6448C21 17.7935 20.8741 17.9168 20.7222 17.9168Z" fill="white"/>
<path d="M18.4995 20.0932C18.3476 20.0932 18.2217 19.9698 18.2217 19.8211V15.4684C18.2217 15.3197 18.3476 15.1964 18.4995 15.1964C18.6513 15.1964 18.7772 15.3197 18.7772 15.4684V19.8211C18.7772 19.9698 18.6513 20.0932 18.4995 20.0932Z" fill="white"/>
<path d="M9.49744 17.2053C9.22356 17.2053 8.95852 17.1706 8.73765 17.0928C5.36274 15.9593 0 11.9359 0 5.99169C0 2.96334 2.50026 0.506042 5.57478 0.506042C7.06786 0.506042 8.46377 1.0771 9.49744 2.09809C10.5311 1.0771 11.927 0.506042 13.4201 0.506042C16.4946 0.506042 18.9949 2.97199 18.9949 5.99169C18.9949 11.9446 13.6321 15.9593 10.2572 17.0928C10.0364 17.1706 9.77132 17.2053 9.49744 17.2053ZM5.57478 1.80391C3.23355 1.80391 1.32522 3.68149 1.32522 5.99169C1.32522 11.9013 7.12971 15.1892 9.17055 15.8728C9.32958 15.9247 9.67414 15.9247 9.83317 15.8728C11.8652 15.1892 17.6785 11.91 17.6785 5.99169C17.6785 3.68149 15.7702 1.80391 13.4289 1.80391C12.086 1.80391 10.8403 2.41823 10.0364 3.48248C9.78899 3.81127 9.22356 3.81127 8.97619 3.48248C8.15455 2.40958 6.91767 1.80391 5.57478 1.80391Z" fill="white"/>
</svg>
