<svg width="19" height="18" viewBox="0 0 19 18" fill="none" xmlns="http://www.w3.org/2000/svg">
<path d="M9.49744 17.2053C9.22356 17.2053 8.95852 17.1706 8.73765 17.0928C5.36274 15.9593 0 11.9359 0 5.99169C0 2.96334 2.50026 0.506042 5.57478 0.506042C7.06786 0.506042 8.46377 1.0771 9.49744 2.09809C10.5311 1.0771 11.927 0.506042 13.4201 0.506042C16.4946 0.506042 18.9949 2.97199 18.9949 5.99169C18.9949 11.9446 13.6321 15.9593 10.2572 17.0928C10.0364 17.1706 9.77132 17.2053 9.49744 17.2053ZM5.57478 1.80391C3.23355 1.80391 1.32522 3.68149 1.32522 5.99169C1.32522 11.9013 7.12971 15.1892 9.17055 15.8728C9.32958 15.9247 9.67414 15.9247 9.83317 15.8728C11.8652 15.1892 17.6785 11.91 17.6785 5.99169C17.6785 3.68149 15.7702 1.80391 13.4289 1.80391C12.086 1.80391 10.8403 2.41823 10.0364 3.48248C9.78899 3.81127 9.22356 3.81127 8.97619 3.48248C8.15455 2.40958 6.91767 1.80391 5.57478 1.80391Z" fill="white"/>
</svg>
